<svg width="224" height="192" viewBox="0 0 224 192" fill="none" xmlns="http://www.w3.org/2000/svg">
<path d="M38.1742 157.675L41.6782 145.8H42.7759L41.8889 149.326L38.1521 161.944H37.0987L38.1742 157.675ZM34.1048 145.8L37.0543 157.564L37.9414 161.944H36.8436L32.7076 145.8H34.1048ZM47.4996 157.564L50.4048 145.8H51.8019L47.677 161.944H46.5793L47.4996 157.564ZM42.8979 145.8L46.3575 157.675L47.422 161.944H46.3686L42.7094 149.326L41.8112 145.8H42.8979Z" fill="white"/>
<path d="M55.45 144.913V161.944H54.1305V144.913H55.45ZM55.1506 155.203L54.5629 154.87C54.6073 154.16 54.7514 153.495 54.9954 152.874C55.2393 152.253 55.5683 151.706 55.9823 151.233C56.4036 150.76 56.8952 150.39 57.457 150.124C58.0262 149.858 58.6546 149.725 59.3421 149.725C59.9408 149.725 60.4768 149.806 60.9499 149.969C61.423 150.132 61.8259 150.39 62.1585 150.745C62.4912 151.1 62.7425 151.555 62.9125 152.109C63.0899 152.663 63.1787 153.34 63.1787 154.138V161.944H61.848V154.127C61.848 153.299 61.7335 152.652 61.5043 152.187C61.2751 151.714 60.9499 151.377 60.5285 151.178C60.1072 150.978 59.6082 150.878 59.0316 150.878C58.3958 150.878 57.8377 151.019 57.3572 151.3C56.8841 151.573 56.4849 151.932 56.1597 152.375C55.8418 152.811 55.5979 153.281 55.4278 153.783C55.2578 154.279 55.1654 154.752 55.1506 155.203Z" fill="white"/>
<path d="M71.2289 162.166C70.4453 162.166 69.7245 162.022 69.0666 161.734C68.4161 161.445 67.8469 161.039 67.359 160.514C66.8785 159.989 66.5052 159.368 66.2391 158.651C65.9803 157.927 65.851 157.136 65.851 156.278V155.801C65.851 154.877 65.9877 154.042 66.2612 153.295C66.5348 152.549 66.9118 151.909 67.3923 151.377C67.8728 150.845 68.4198 150.438 69.0333 150.157C69.6543 149.869 70.3048 149.725 70.9849 149.725C71.7463 149.725 72.4227 149.862 73.0141 150.135C73.6055 150.401 74.1008 150.782 74.4999 151.277C74.9065 151.765 75.2133 152.346 75.4203 153.018C75.6273 153.684 75.7308 154.419 75.7308 155.225V156.034H66.6493V154.903H74.4112V154.748C74.3965 154.075 74.2597 153.447 74.001 152.863C73.7496 152.272 73.3726 151.791 72.8699 151.422C72.3673 151.052 71.7389 150.867 70.9849 150.867C70.4231 150.867 69.9056 150.985 69.4325 151.222C68.9668 151.458 68.5639 151.799 68.2239 152.242C67.8912 152.678 67.6325 153.199 67.4477 153.806C67.2703 154.404 67.1816 155.07 67.1816 155.801V156.278C67.1816 156.944 67.2777 157.564 67.4699 158.141C67.6695 158.71 67.9504 159.213 68.3126 159.649C68.6822 160.085 69.1184 160.425 69.621 160.669C70.1237 160.913 70.6781 161.035 71.2843 161.035C71.994 161.035 72.6223 160.906 73.1693 160.647C73.7164 160.381 74.2079 159.963 74.6441 159.394L75.4757 160.037C75.217 160.422 74.8917 160.776 74.4999 161.102C74.1155 161.427 73.6535 161.686 73.1139 161.878C72.5742 162.07 71.9459 162.166 71.2289 162.166Z" fill="white"/>
<path d="M79.6671 151.932V161.944H78.3476V149.947H79.6339L79.6671 151.932ZM83.914 149.858L83.8808 151.078C83.7329 151.056 83.5888 151.037 83.4483 151.022C83.3078 151.008 83.1563 151 82.9937 151C82.4171 151 81.9107 151.107 81.4746 151.322C81.0458 151.529 80.6836 151.821 80.3879 152.198C80.0922 152.567 79.8667 153.003 79.7115 153.506C79.5563 154.001 79.4676 154.534 79.4454 155.103L78.9575 155.291C78.9575 154.508 79.0388 153.78 79.2014 153.107C79.3641 152.434 79.6117 151.847 79.9444 151.344C80.2844 150.834 80.7095 150.438 81.2195 150.157C81.737 149.869 82.3432 149.725 83.038 149.725C83.2081 149.725 83.3744 149.74 83.537 149.769C83.707 149.792 83.8327 149.821 83.914 149.858Z" fill="white"/>
<path d="M90.4118 162.166C89.6283 162.166 88.9075 162.022 88.2496 161.734C87.5991 161.445 87.0299 161.039 86.542 160.514C86.0615 159.989 85.6882 159.368 85.422 158.651C85.1633 157.927 85.034 157.136 85.034 156.278V155.801C85.034 154.877 85.1707 154.042 85.4442 153.295C85.7177 152.549 86.0947 151.909 86.5752 151.377C87.0557 150.845 87.6028 150.438 88.2163 150.157C88.8373 149.869 89.4878 149.725 90.1679 149.725C90.9293 149.725 91.6057 149.862 92.1971 150.135C92.7885 150.401 93.2837 150.782 93.6829 151.277C94.0895 151.765 94.3963 152.346 94.6033 153.018C94.8102 153.684 94.9137 154.419 94.9137 155.225V156.034H85.8323V154.903H93.5942V154.748C93.5794 154.075 93.4427 153.447 93.1839 152.863C92.9326 152.272 92.5556 151.791 92.0529 151.422C91.5503 151.052 90.9219 150.867 90.1679 150.867C89.6061 150.867 89.0886 150.985 88.6155 151.222C88.1498 151.458 87.7469 151.799 87.4069 152.242C87.0742 152.678 86.8155 153.199 86.6307 153.806C86.4533 154.404 86.3646 155.07 86.3646 155.801V156.278C86.3646 156.944 86.4607 157.564 86.6529 158.141C86.8525 158.71 87.1334 159.213 87.4956 159.649C87.8652 160.085 88.3013 160.425 88.804 160.669C89.3067 160.913 89.8611 161.035 90.4673 161.035C91.1769 161.035 91.8053 160.906 92.3523 160.647C92.8993 160.381 93.3909 159.963 93.8271 159.394L94.6587 160.037C94.4 160.422 94.0747 160.776 93.6829 161.102C93.2985 161.427 92.8365 161.686 92.2969 161.878C91.7572 162.07 91.1289 162.166 90.4118 162.166Z" fill="white"/>
<path d="M113.42 160.78V161.944H104.339V160.78H113.42ZM104.749 145.8V161.944H103.385V145.8H104.749ZM112.289 153.04V154.205H104.339V153.04H112.289ZM113.365 145.8V146.975H104.339V145.8H113.365Z" fill="white"/>
<path d="M117.323 152.508V161.944H116.004V149.947H117.268L117.323 152.508ZM117.024 155.203L116.436 154.87C116.481 154.16 116.625 153.495 116.869 152.874C117.113 152.253 117.442 151.706 117.856 151.233C118.277 150.76 118.769 150.39 119.33 150.124C119.9 149.858 120.528 149.725 121.215 149.725C121.814 149.725 122.35 149.806 122.823 149.969C123.296 150.132 123.699 150.39 124.032 150.745C124.365 151.1 124.616 151.555 124.786 152.109C124.963 152.663 125.052 153.34 125.052 154.138V161.944H123.721V154.127C123.721 153.299 123.607 152.652 123.378 152.187C123.149 151.714 122.823 151.377 122.402 151.178C121.981 150.978 121.482 150.878 120.905 150.878C120.269 150.878 119.711 151.019 119.231 151.3C118.758 151.573 118.358 151.932 118.033 152.375C117.715 152.811 117.471 153.281 117.301 153.783C117.131 154.279 117.039 154.752 117.024 155.203Z" fill="white"/>
<path d="M128.589 149.947H129.92V163.375C129.92 164.107 129.798 164.728 129.554 165.238C129.31 165.748 128.955 166.132 128.49 166.391C128.024 166.657 127.451 166.79 126.771 166.79C126.586 166.79 126.386 166.772 126.172 166.735C125.958 166.698 125.762 166.646 125.584 166.579L125.607 165.471C125.74 165.508 125.899 165.541 126.083 165.57C126.261 165.607 126.434 165.626 126.604 165.626C127.033 165.626 127.395 165.541 127.691 165.371C127.987 165.208 128.209 164.96 128.356 164.628C128.512 164.295 128.589 163.878 128.589 163.375V149.947ZM128.356 146.476C128.356 146.225 128.438 146.014 128.6 145.844C128.763 145.667 128.985 145.578 129.266 145.578C129.547 145.578 129.768 145.667 129.931 145.844C130.101 146.014 130.186 146.225 130.186 146.476C130.186 146.72 130.101 146.931 129.931 147.108C129.768 147.278 129.547 147.363 129.266 147.363C128.985 147.363 128.763 147.278 128.6 147.108C128.438 146.931 128.356 146.72 128.356 146.476Z" fill="white"/>
<path d="M132.947 156.134V155.768C132.947 154.896 133.073 154.09 133.324 153.351C133.575 152.612 133.934 151.972 134.4 151.433C134.873 150.893 135.438 150.475 136.096 150.18C136.754 149.877 137.486 149.725 138.292 149.725C139.105 149.725 139.84 149.877 140.498 150.18C141.156 150.475 141.722 150.893 142.195 151.433C142.668 151.972 143.03 152.612 143.281 153.351C143.533 154.09 143.658 154.896 143.658 155.768V156.134C143.658 157.006 143.533 157.812 143.281 158.551C143.03 159.283 142.668 159.919 142.195 160.459C141.729 160.998 141.167 161.42 140.509 161.723C139.851 162.018 139.12 162.166 138.314 162.166C137.501 162.166 136.765 162.018 136.107 161.723C135.449 161.42 134.884 160.998 134.411 160.459C133.938 159.919 133.575 159.283 133.324 158.551C133.073 157.812 132.947 157.006 132.947 156.134ZM134.267 155.768V156.134C134.267 156.792 134.355 157.417 134.533 158.008C134.71 158.592 134.969 159.113 135.309 159.572C135.649 160.022 136.07 160.377 136.573 160.636C137.076 160.895 137.656 161.024 138.314 161.024C138.964 161.024 139.537 160.895 140.033 160.636C140.535 160.377 140.957 160.022 141.297 159.572C141.637 159.113 141.892 158.592 142.062 158.008C142.239 157.417 142.328 156.792 142.328 156.134V155.768C142.328 155.118 142.239 154.5 142.062 153.916C141.892 153.332 141.633 152.811 141.286 152.353C140.946 151.895 140.524 151.532 140.021 151.266C139.519 151 138.942 150.867 138.292 150.867C137.641 150.867 137.065 151 136.562 151.266C136.067 151.532 135.645 151.895 135.298 152.353C134.958 152.811 134.699 153.332 134.522 153.916C134.352 154.5 134.267 155.118 134.267 155.768Z" fill="white"/>
<path d="M149.79 160.747L153.527 149.947H154.958L149.879 163.874C149.776 164.147 149.643 164.45 149.48 164.783C149.325 165.116 149.118 165.434 148.859 165.737C148.608 166.047 148.29 166.298 147.905 166.491C147.528 166.69 147.066 166.79 146.519 166.79C146.379 166.79 146.198 166.772 145.976 166.735C145.762 166.705 145.606 166.675 145.51 166.646L145.499 165.526C145.58 165.548 145.699 165.567 145.854 165.581C146.009 165.596 146.116 165.604 146.176 165.604C146.656 165.604 147.059 165.522 147.384 165.36C147.717 165.197 147.994 164.953 148.216 164.628C148.438 164.31 148.633 163.911 148.804 163.43L149.79 160.747ZM146.298 149.947L150.123 160.248L150.478 161.634L149.513 162.177L144.856 149.947H146.298Z" fill="white"/>
<path d="M158.284 152.431V161.944H156.954V149.947H158.229L158.284 152.431ZM158.04 155.203L157.397 154.87C157.441 154.16 157.574 153.495 157.796 152.874C158.025 152.253 158.343 151.706 158.75 151.233C159.156 150.76 159.644 150.39 160.214 150.124C160.783 149.858 161.43 149.725 162.154 149.725C162.738 149.725 163.267 149.806 163.74 149.969C164.22 150.124 164.627 150.372 164.959 150.712C165.299 151.044 165.562 151.481 165.747 152.02C165.931 152.56 166.024 153.207 166.024 153.961V161.944H164.704V154.005C164.704 153.207 164.579 152.582 164.327 152.131C164.083 151.68 163.74 151.359 163.296 151.166C162.86 150.974 162.354 150.878 161.777 150.878C161.097 150.878 160.52 151.019 160.047 151.3C159.581 151.573 159.201 151.932 158.905 152.375C158.617 152.811 158.402 153.281 158.262 153.783C158.121 154.279 158.048 154.752 158.04 155.203ZM166.013 154.16L165.126 154.183C165.163 153.599 165.296 153.04 165.525 152.508C165.761 151.976 166.083 151.503 166.49 151.089C166.896 150.667 167.38 150.335 167.942 150.091C168.511 149.847 169.151 149.725 169.86 149.725C170.481 149.725 171.036 149.81 171.524 149.98C172.012 150.143 172.422 150.405 172.755 150.767C173.095 151.122 173.353 151.577 173.531 152.131C173.708 152.686 173.797 153.351 173.797 154.127V161.944H172.466V154.116C172.466 153.266 172.341 152.608 172.089 152.142C171.845 151.669 171.505 151.34 171.069 151.155C170.633 150.971 170.123 150.878 169.539 150.878C168.962 150.886 168.456 150.993 168.02 151.2C167.584 151.399 167.218 151.665 166.922 151.998C166.634 152.323 166.412 152.674 166.257 153.052C166.109 153.429 166.028 153.798 166.013 154.16Z" fill="white"/>
<path d="M181.803 162.166C181.019 162.166 180.298 162.022 179.64 161.734C178.99 161.445 178.421 161.039 177.933 160.514C177.452 159.989 177.079 159.368 176.813 158.651C176.554 157.927 176.425 157.136 176.425 156.278V155.801C176.425 154.877 176.562 154.042 176.835 153.295C177.109 152.549 177.486 151.909 177.966 151.377C178.447 150.845 178.994 150.438 179.607 150.157C180.228 149.869 180.879 149.725 181.559 149.725C182.32 149.725 182.997 149.862 183.588 150.135C184.179 150.401 184.675 150.782 185.074 151.277C185.48 151.765 185.787 152.346 185.994 153.018C186.201 153.684 186.305 154.419 186.305 155.225V156.034H177.223V154.903H184.985V154.748C184.97 154.075 184.834 153.447 184.575 152.863C184.323 152.272 183.946 151.791 183.444 151.422C182.941 151.052 182.313 150.867 181.559 150.867C180.997 150.867 180.479 150.985 180.006 151.222C179.541 151.458 179.138 151.799 178.798 152.242C178.465 152.678 178.206 153.199 178.022 153.806C177.844 154.404 177.755 155.07 177.755 155.801V156.278C177.755 156.944 177.852 157.564 178.044 158.141C178.243 158.71 178.524 159.213 178.886 159.649C179.256 160.085 179.692 160.425 180.195 160.669C180.698 160.913 181.252 161.035 181.858 161.035C182.568 161.035 183.196 160.906 183.743 160.647C184.29 160.381 184.782 159.963 185.218 159.394L186.05 160.037C185.791 160.422 185.466 160.776 185.074 161.102C184.689 161.427 184.227 161.686 183.688 161.878C183.148 162.07 182.52 162.166 181.803 162.166Z" fill="white"/>
<path d="M190.241 152.508V161.944H188.921V149.947H190.186L190.241 152.508ZM189.942 155.203L189.354 154.87C189.398 154.16 189.542 153.495 189.786 152.874C190.03 152.253 190.359 151.706 190.773 151.233C191.195 150.76 191.686 150.39 192.248 150.124C192.817 149.858 193.446 149.725 194.133 149.725C194.732 149.725 195.268 149.806 195.741 149.969C196.214 150.132 196.617 150.39 196.949 150.745C197.282 151.1 197.533 151.555 197.704 152.109C197.881 152.663 197.97 153.34 197.97 154.138V161.944H196.639V154.127C196.639 153.299 196.524 152.652 196.295 152.187C196.066 151.714 195.741 151.377 195.319 151.178C194.898 150.978 194.399 150.878 193.823 150.878C193.187 150.878 192.629 151.019 192.148 151.3C191.675 151.573 191.276 151.932 190.951 152.375C190.633 152.811 190.389 153.281 190.219 153.783C190.049 154.279 189.956 154.752 189.942 155.203Z" fill="white"/>
<path d="M205.942 149.947V151.033H199.932V149.947H205.942ZM202.139 146.864H203.458V159.028C203.458 159.583 203.532 160 203.68 160.281C203.828 160.562 204.02 160.751 204.257 160.847C204.493 160.943 204.748 160.991 205.022 160.991C205.221 160.991 205.414 160.98 205.598 160.958C205.783 160.928 205.95 160.898 206.097 160.869L206.153 161.989C205.99 162.041 205.78 162.081 205.521 162.111C205.262 162.148 205.003 162.166 204.745 162.166C204.235 162.166 203.784 162.074 203.392 161.889C203 161.697 202.693 161.372 202.472 160.913C202.25 160.447 202.139 159.815 202.139 159.017V146.864Z" fill="white"/>
<path d="M34.504 170.401H35.8789L41.8445 184.617L47.8212 170.401H49.1851L42.3657 186.546H41.3234L34.504 170.401ZM34.0826 170.401H35.2912L35.4354 179.494V186.546H34.0826V170.401ZM48.4199 170.401H49.6286V186.546H48.2647V179.494L48.4199 170.401Z" fill="white"/>
<path d="M58.0558 186.768C57.2722 186.768 56.5515 186.624 55.8936 186.335C55.243 186.047 54.6738 185.64 54.1859 185.116C53.7054 184.591 53.3321 183.97 53.066 183.253C52.8073 182.528 52.6779 181.737 52.6779 180.88V180.403C52.6779 179.479 52.8147 178.644 53.0882 177.897C53.3617 177.15 53.7387 176.511 54.2192 175.979C54.6997 175.446 55.2467 175.04 55.8603 174.759C56.4812 174.471 57.1318 174.327 57.8119 174.327C58.5733 174.327 59.2497 174.463 59.841 174.737C60.4324 175.003 60.9277 175.384 61.3269 175.879C61.7335 176.367 62.0402 176.947 62.2472 177.62C62.4542 178.285 62.5577 179.021 62.5577 179.826V180.636H53.4763V179.505H61.2382V179.35C61.2234 178.677 61.0866 178.049 60.8279 177.465C60.5766 176.873 60.1996 176.393 59.6969 176.023C59.1942 175.653 58.5659 175.469 57.8119 175.469C57.25 175.469 56.7326 175.587 56.2595 175.823C55.7938 176.06 55.3909 176.4 55.0508 176.844C54.7182 177.28 54.4594 177.801 54.2746 178.407C54.0972 179.006 54.0085 179.671 54.0085 180.403V180.88C54.0085 181.545 54.1046 182.166 54.2968 182.743C54.4964 183.312 54.7773 183.815 55.1395 184.251C55.5092 184.687 55.9453 185.027 56.448 185.271C56.9506 185.515 57.5051 185.637 58.1112 185.637C58.8209 185.637 59.4492 185.507 59.9963 185.249C60.5433 184.982 61.0349 184.565 61.471 183.996L62.3027 184.639C62.0439 185.023 61.7187 185.378 61.3269 185.703C60.9425 186.028 60.4805 186.287 59.9408 186.479C59.4012 186.672 58.7728 186.768 58.0558 186.768Z" fill="white"/>
<path d="M69.8095 186.768C69.026 186.768 68.3052 186.624 67.6473 186.335C66.9968 186.047 66.4276 185.64 65.9397 185.116C65.4592 184.591 65.0859 183.97 64.8197 183.253C64.561 182.528 64.4316 181.737 64.4316 180.88V180.403C64.4316 179.479 64.5684 178.644 64.8419 177.897C65.1154 177.15 65.4924 176.511 65.9729 175.979C66.4534 175.446 67.0005 175.04 67.614 174.759C68.235 174.471 68.8855 174.327 69.5656 174.327C70.327 174.327 71.0034 174.463 71.5948 174.737C72.1862 175.003 72.6814 175.384 73.0806 175.879C73.4872 176.367 73.794 176.947 74.001 177.62C74.2079 178.285 74.3114 179.021 74.3114 179.826V180.636H65.23V179.505H72.9919V179.35C72.9771 178.677 72.8404 178.049 72.5816 177.465C72.3303 176.873 71.9533 176.393 71.4506 176.023C70.9479 175.653 70.3196 175.469 69.5656 175.469C69.0038 175.469 68.4863 175.587 68.0132 175.823C67.5475 176.06 67.1446 176.4 66.8046 176.844C66.4719 177.28 66.2132 177.801 66.0284 178.407C65.851 179.006 65.7623 179.671 65.7623 180.403V180.88C65.7623 181.545 65.8584 182.166 66.0506 182.743C66.2501 183.312 66.5311 183.815 66.8933 184.251C67.2629 184.687 67.699 185.027 68.2017 185.271C68.7044 185.515 69.2588 185.637 69.865 185.637C70.5746 185.637 71.203 185.507 71.75 185.249C72.297 184.982 72.7886 184.565 73.2248 183.996L74.0564 184.639C73.7977 185.023 73.4724 185.378 73.0806 185.703C72.6962 186.028 72.2342 186.287 71.6946 186.479C71.1549 186.672 70.5266 186.768 69.8095 186.768Z" fill="white"/>
<path d="M81.4635 174.548V175.635H75.4535V174.548H81.4635ZM77.6601 171.466H78.9797V183.63C78.9797 184.184 79.0536 184.602 79.2014 184.883C79.3493 185.164 79.5415 185.352 79.778 185.448C80.0146 185.544 80.2696 185.592 80.5431 185.592C80.7427 185.592 80.9349 185.581 81.1197 185.559C81.3045 185.53 81.4709 185.5 81.6187 185.47L81.6742 186.59C81.5115 186.642 81.3008 186.683 81.0421 186.712C80.7834 186.749 80.5247 186.768 80.2659 186.768C79.7559 186.768 79.3049 186.675 78.9131 186.491C78.5213 186.298 78.2146 185.973 77.9928 185.515C77.771 185.049 77.6601 184.417 77.6601 183.619V171.466Z" fill="white"/>
<path d="M91.432 183.486C91.432 183.16 91.3507 182.839 91.188 182.521C91.0254 182.203 90.7112 181.911 90.2455 181.645C89.7872 181.379 89.1108 181.153 88.2163 180.968C87.551 180.821 86.9559 180.654 86.4311 180.469C85.9136 180.285 85.4775 180.063 85.1227 179.804C84.7678 179.545 84.498 179.235 84.3132 178.873C84.1284 178.511 84.036 178.082 84.036 177.587C84.036 177.143 84.1321 176.725 84.3243 176.334C84.5239 175.934 84.8048 175.587 85.167 175.291C85.5366 174.988 85.9802 174.752 86.4976 174.582C87.0225 174.412 87.6102 174.327 88.2607 174.327C89.1847 174.327 89.9757 174.485 90.6336 174.803C91.2989 175.114 91.8053 175.539 92.1527 176.078C92.5076 176.618 92.685 177.228 92.685 177.908H91.3654C91.3654 177.494 91.2435 177.102 90.9995 176.733C90.763 176.363 90.4118 176.06 89.9461 175.823C89.4878 175.587 88.926 175.469 88.2607 175.469C87.5732 175.469 87.0151 175.572 86.5863 175.779C86.1576 175.986 85.8434 176.249 85.6438 176.566C85.4516 176.884 85.3555 177.213 85.3555 177.553C85.3555 177.819 85.3962 178.063 85.4775 178.285C85.5662 178.499 85.7214 178.699 85.9432 178.884C86.1724 179.069 86.4976 179.242 86.919 179.405C87.3403 179.568 87.8874 179.727 88.5601 179.882C89.5285 180.096 90.3194 180.359 90.933 180.669C91.5539 180.972 92.0123 181.349 92.308 181.8C92.6037 182.244 92.7515 182.783 92.7515 183.419C92.7515 183.914 92.648 184.369 92.441 184.783C92.234 185.189 91.9347 185.541 91.5429 185.836C91.1585 186.132 90.6927 186.361 90.1457 186.524C89.6061 186.686 88.9999 186.768 88.3272 186.768C87.3145 186.768 86.457 186.601 85.7547 186.269C85.0598 185.929 84.5313 185.485 84.1691 184.938C83.8142 184.384 83.6368 183.796 83.6368 183.175H84.9563C85.0007 183.796 85.1966 184.288 85.544 184.65C85.8915 185.005 86.3165 185.256 86.8192 185.404C87.3293 185.552 87.8319 185.626 88.3272 185.626C89.0073 185.626 89.5765 185.526 90.0348 185.326C90.4932 185.127 90.8406 184.864 91.0771 184.539C91.3137 184.214 91.432 183.863 91.432 183.486Z" fill="white"/>
<path d="M110.748 182.576C110.748 182.133 110.674 181.737 110.526 181.39C110.378 181.042 110.134 180.732 109.794 180.458C109.462 180.178 109.011 179.919 108.442 179.682C107.88 179.438 107.178 179.198 106.335 178.961C105.529 178.732 104.801 178.481 104.15 178.207C103.5 177.934 102.942 177.62 102.476 177.265C102.018 176.91 101.667 176.496 101.423 176.023C101.179 175.543 101.057 174.984 101.057 174.349C101.057 173.728 101.19 173.162 101.456 172.652C101.722 172.142 102.095 171.702 102.576 171.333C103.064 170.963 103.637 170.678 104.295 170.479C104.96 170.279 105.688 170.179 106.479 170.179C107.61 170.179 108.586 170.394 109.406 170.823C110.234 171.251 110.874 171.832 111.325 172.563C111.783 173.288 112.012 174.101 112.012 175.003H110.648C110.648 174.301 110.482 173.676 110.149 173.129C109.824 172.575 109.351 172.142 108.73 171.832C108.116 171.514 107.366 171.355 106.479 171.355C105.592 171.355 104.845 171.492 104.239 171.765C103.64 172.031 103.186 172.39 102.875 172.841C102.572 173.284 102.421 173.779 102.421 174.327C102.421 174.711 102.495 175.066 102.642 175.391C102.79 175.709 103.03 176.008 103.363 176.289C103.703 176.563 104.15 176.821 104.705 177.065C105.259 177.302 105.943 177.527 106.756 177.742C107.614 177.978 108.375 178.241 109.04 178.529C109.706 178.817 110.268 179.15 110.726 179.527C111.184 179.897 111.532 180.329 111.768 180.824C112.005 181.32 112.123 181.896 112.123 182.554C112.123 183.212 111.983 183.803 111.702 184.328C111.428 184.846 111.04 185.286 110.537 185.648C110.042 186.01 109.454 186.287 108.774 186.479C108.102 186.672 107.366 186.768 106.568 186.768C105.851 186.768 105.137 186.675 104.428 186.491C103.718 186.306 103.067 186.021 102.476 185.637C101.892 185.245 101.423 184.742 101.068 184.129C100.72 183.515 100.547 182.783 100.547 181.933H101.899C101.899 182.613 102.036 183.186 102.31 183.652C102.583 184.118 102.945 184.495 103.396 184.783C103.855 185.071 104.357 185.282 104.904 185.415C105.459 185.541 106.013 185.603 106.568 185.603C107.418 185.603 108.153 185.478 108.774 185.226C109.403 184.975 109.887 184.624 110.227 184.173C110.574 183.715 110.748 183.182 110.748 182.576Z" fill="white"/>
<path d="M119.397 186.768C118.613 186.768 117.893 186.624 117.235 186.335C116.584 186.047 116.015 185.64 115.527 185.116C115.047 184.591 114.673 183.97 114.407 183.253C114.148 182.528 114.019 181.737 114.019 180.88V180.403C114.019 179.479 114.156 178.644 114.429 177.897C114.703 177.15 115.08 176.511 115.56 175.979C116.041 175.446 116.588 175.04 117.201 174.759C117.822 174.471 118.473 174.327 119.153 174.327C119.914 174.327 120.591 174.463 121.182 174.737C121.774 175.003 122.269 175.384 122.668 175.879C123.075 176.367 123.381 176.947 123.588 177.62C123.795 178.285 123.899 179.021 123.899 179.826V180.636H114.817V179.505H122.579V179.35C122.565 178.677 122.428 178.049 122.169 177.465C121.918 176.873 121.541 176.393 121.038 176.023C120.535 175.653 119.907 175.469 119.153 175.469C118.591 175.469 118.074 175.587 117.601 175.823C117.135 176.06 116.732 176.4 116.392 176.844C116.059 177.28 115.801 177.801 115.616 178.407C115.438 179.006 115.35 179.671 115.35 180.403V180.88C115.35 181.545 115.446 182.166 115.638 182.743C115.838 183.312 116.119 183.815 116.481 184.251C116.85 184.687 117.286 185.027 117.789 185.271C118.292 185.515 118.846 185.637 119.452 185.637C120.162 185.637 120.79 185.507 121.337 185.249C121.885 184.982 122.376 184.565 122.812 183.996L123.644 184.639C123.385 185.023 123.06 185.378 122.668 185.703C122.284 186.028 121.822 186.287 121.282 186.479C120.742 186.672 120.114 186.768 119.397 186.768Z" fill="white"/>
<path d="M130.94 185.626C131.502 185.626 132.027 185.522 132.515 185.315C133.01 185.101 133.416 184.787 133.734 184.373C134.06 183.951 134.244 183.438 134.289 182.831H135.553C135.516 183.593 135.283 184.273 134.854 184.872C134.433 185.463 133.878 185.929 133.191 186.269C132.511 186.601 131.761 186.768 130.94 186.768C130.105 186.768 129.366 186.616 128.722 186.313C128.087 186.01 127.554 185.589 127.126 185.049C126.697 184.502 126.372 183.866 126.15 183.142C125.935 182.41 125.828 181.623 125.828 180.78V180.314C125.828 179.472 125.935 178.688 126.15 177.964C126.372 177.232 126.697 176.596 127.126 176.056C127.554 175.509 128.087 175.084 128.722 174.781C129.358 174.478 130.094 174.327 130.929 174.327C131.786 174.327 132.555 174.5 133.235 174.848C133.923 175.195 134.47 175.687 134.876 176.322C135.29 176.958 135.516 177.712 135.553 178.584H134.289C134.252 177.941 134.082 177.387 133.779 176.921C133.476 176.455 133.076 176.097 132.581 175.846C132.086 175.594 131.535 175.469 130.929 175.469C130.249 175.469 129.669 175.602 129.188 175.868C128.708 176.127 128.316 176.485 128.013 176.943C127.717 177.394 127.499 177.912 127.358 178.496C127.218 179.072 127.148 179.679 127.148 180.314V180.78C127.148 181.423 127.214 182.037 127.347 182.621C127.488 183.197 127.706 183.711 128.002 184.162C128.305 184.613 128.696 184.971 129.177 185.238C129.665 185.496 130.253 185.626 130.94 185.626Z" fill="white"/>
<path d="M145.909 183.774V174.548H147.24V186.546H145.965L145.909 183.774ZM146.153 181.556L146.841 181.534C146.841 182.288 146.752 182.983 146.575 183.619C146.397 184.254 146.12 184.809 145.743 185.282C145.366 185.755 144.878 186.121 144.279 186.38C143.681 186.638 142.96 186.768 142.117 186.768C141.533 186.768 140.997 186.686 140.509 186.524C140.029 186.354 139.615 186.088 139.267 185.725C138.92 185.363 138.65 184.894 138.458 184.317C138.273 183.741 138.181 183.042 138.181 182.221V174.548H139.5V182.244C139.5 182.887 139.571 183.423 139.711 183.851C139.859 184.28 140.058 184.624 140.31 184.883C140.569 185.141 140.864 185.326 141.197 185.437C141.53 185.548 141.888 185.603 142.272 185.603C143.248 185.603 144.017 185.415 144.579 185.038C145.148 184.661 145.551 184.166 145.787 183.552C146.031 182.931 146.153 182.266 146.153 181.556Z" fill="white"/>
<path d="M152.03 176.533V186.546H150.711V174.548H151.997L152.03 176.533ZM156.277 174.46L156.244 175.679C156.096 175.657 155.952 175.639 155.811 175.624C155.671 175.609 155.519 175.602 155.357 175.602C154.78 175.602 154.274 175.709 153.838 175.923C153.409 176.13 153.047 176.422 152.751 176.799C152.455 177.169 152.23 177.605 152.075 178.108C151.919 178.603 151.831 179.135 151.808 179.704L151.321 179.893C151.321 179.109 151.402 178.381 151.565 177.708C151.727 177.036 151.975 176.448 152.307 175.945C152.648 175.435 153.073 175.04 153.583 174.759C154.1 174.471 154.706 174.327 155.401 174.327C155.571 174.327 155.737 174.341 155.9 174.371C156.07 174.393 156.196 174.423 156.277 174.46Z" fill="white"/>
<path d="M159.837 174.548V186.546H158.517V174.548H159.837ZM158.284 171.078C158.284 170.826 158.362 170.616 158.517 170.446C158.68 170.268 158.901 170.179 159.182 170.179C159.463 170.179 159.685 170.268 159.848 170.446C160.018 170.616 160.103 170.826 160.103 171.078C160.103 171.322 160.018 171.532 159.848 171.71C159.685 171.88 159.463 171.965 159.182 171.965C158.901 171.965 158.68 171.88 158.517 171.71C158.362 171.532 158.284 171.322 158.284 171.078Z" fill="white"/>
<path d="M167.998 174.548V175.635H161.988V174.548H167.998ZM164.194 171.466H165.514V183.63C165.514 184.184 165.588 184.602 165.736 184.883C165.883 185.164 166.076 185.352 166.312 185.448C166.549 185.544 166.804 185.592 167.077 185.592C167.277 185.592 167.469 185.581 167.654 185.559C167.839 185.53 168.005 185.5 168.153 185.47L168.208 186.59C168.046 186.642 167.835 186.683 167.576 186.712C167.318 186.749 167.059 186.768 166.8 186.768C166.29 186.768 165.839 186.675 165.447 186.491C165.055 186.298 164.749 185.973 164.527 185.515C164.305 185.049 164.194 184.417 164.194 183.619V171.466Z" fill="white"/>
<path d="M174.34 185.348L178.077 174.548H179.507L174.429 188.475C174.325 188.749 174.192 189.052 174.03 189.385C173.874 189.717 173.667 190.035 173.409 190.338C173.157 190.649 172.84 190.9 172.455 191.092C172.078 191.292 171.616 191.392 171.069 191.392C170.929 191.392 170.748 191.373 170.526 191.336C170.311 191.307 170.156 191.277 170.06 191.247L170.049 190.128C170.13 190.15 170.249 190.168 170.404 190.183C170.559 190.198 170.666 190.205 170.725 190.205C171.206 190.205 171.609 190.124 171.934 189.961C172.267 189.799 172.544 189.555 172.766 189.229C172.987 188.911 173.183 188.512 173.353 188.032L174.34 185.348ZM170.847 174.548L174.673 184.849L175.028 186.235L174.063 186.779L169.406 174.548H170.847Z" fill="white"/>
<path d="M48.4235 125.12C48.4235 124.701 48.3619 124.325 48.2387 123.993C48.1155 123.648 47.8875 123.327 47.5549 123.032C47.2222 122.736 46.7417 122.44 46.1134 122.145C45.4974 121.837 44.6842 121.516 43.6739 121.184C42.4912 120.789 41.3515 120.346 40.255 119.853C39.1585 119.348 38.179 118.763 37.3166 118.097C36.4541 117.42 35.7703 116.631 35.2652 115.732C34.7601 114.82 34.5075 113.761 34.5075 112.553C34.5075 111.395 34.7662 110.354 35.2837 109.43C35.8011 108.494 36.5219 107.699 37.4459 107.046C38.3823 106.381 39.4788 105.875 40.7355 105.53C41.9922 105.173 43.3659 104.994 44.8567 104.994C46.828 104.994 48.5652 105.339 50.0683 106.029C51.5837 106.707 52.7664 107.674 53.6166 108.931C54.479 110.175 54.9102 111.648 54.9102 113.348H48.4604C48.4604 112.67 48.3187 112.073 48.0354 111.555C47.7643 111.038 47.3516 110.631 46.7972 110.335C46.2427 110.04 45.5466 109.892 44.7088 109.892C43.8957 109.892 43.2119 110.015 42.6575 110.262C42.1031 110.508 41.6842 110.841 41.4008 111.259C41.1174 111.666 40.9757 112.116 40.9757 112.609C40.9757 113.015 41.0866 113.385 41.3084 113.717C41.5425 114.038 41.869 114.34 42.2879 114.623C42.7191 114.906 43.2365 115.177 43.8403 115.436C44.4563 115.695 45.1462 115.947 45.9101 116.194C47.3393 116.65 48.6083 117.161 49.7171 117.728C50.8383 118.282 51.7808 118.917 52.5447 119.631C53.3209 120.333 53.9061 121.134 54.3003 122.034C54.7069 122.933 54.9102 123.95 54.9102 125.083C54.9102 126.29 54.6761 127.362 54.2079 128.299C53.7398 129.235 53.0683 130.03 52.1935 130.683C51.3188 131.323 50.2715 131.81 49.0518 132.143C47.8321 132.475 46.4707 132.642 44.9676 132.642C43.5877 132.642 42.2263 132.469 40.8833 132.124C39.5527 131.767 38.3453 131.225 37.2611 130.498C36.1769 129.759 35.3083 128.816 34.6553 127.67C34.0147 126.512 33.6943 125.138 33.6943 123.549H40.1995C40.1995 124.338 40.3043 125.003 40.5137 125.545C40.7232 126.087 41.0312 126.525 41.4378 126.857C41.8443 127.178 42.3433 127.412 42.9347 127.559C43.5261 127.695 44.2037 127.763 44.9676 127.763C45.793 127.763 46.4584 127.646 46.9635 127.412C47.4686 127.165 47.8382 126.845 48.0723 126.451C48.3064 126.044 48.4235 125.601 48.4235 125.12Z" fill="white"/>
<path d="M68.3457 127.245V119.003C68.3457 118.436 68.2656 117.949 68.1054 117.543C67.9453 117.136 67.6927 116.822 67.3477 116.6C67.0028 116.366 66.5407 116.249 65.9617 116.249C65.4935 116.249 65.0931 116.329 64.7604 116.49C64.4278 116.65 64.1752 116.89 64.0027 117.21C63.8302 117.531 63.744 117.937 63.744 118.43H57.516C57.516 117.506 57.7193 116.65 58.1258 115.861C58.5447 115.06 59.1361 114.364 59.9 113.773C60.6762 113.181 61.6002 112.726 62.6721 112.405C63.7563 112.073 64.9637 111.906 66.2943 111.906C67.8837 111.906 69.3005 112.171 70.5449 112.701C71.8016 113.231 72.7934 114.025 73.5203 115.085C74.2472 116.132 74.6106 117.451 74.6106 119.04V127.227C74.6106 128.533 74.6846 129.525 74.8324 130.202C74.9803 130.868 75.1897 131.453 75.4608 131.958V132.272H69.2143C68.9186 131.656 68.6968 130.904 68.549 130.017C68.4134 129.118 68.3457 128.194 68.3457 127.245ZM69.1034 120.056L69.1404 123.383H66.3867C65.8077 123.383 65.3148 123.463 64.9083 123.623C64.514 123.783 64.1937 124.005 63.9473 124.288C63.7132 124.559 63.5407 124.867 63.4298 125.212C63.3312 125.557 63.282 125.921 63.282 126.303C63.282 126.672 63.3682 127.005 63.5407 127.301C63.7255 127.584 63.9719 127.806 64.2799 127.966C64.5879 128.126 64.9329 128.206 65.3148 128.206C66.0048 128.206 66.59 128.077 67.0705 127.818C67.5633 127.547 67.9391 127.221 68.1978 126.839C68.4566 126.457 68.5859 126.099 68.5859 125.767L69.9535 128.317C69.7071 128.81 69.4237 129.309 69.1034 129.814C68.7954 130.319 68.4073 130.787 67.9391 131.219C67.4832 131.638 66.9227 131.983 66.2574 132.254C65.5921 132.512 64.7851 132.642 63.8364 132.642C62.6043 132.642 61.4709 132.389 60.4359 131.884C59.4133 131.379 58.594 130.677 57.978 129.777C57.362 128.865 57.054 127.818 57.054 126.635C57.054 125.601 57.2388 124.676 57.6084 123.863C57.9903 123.05 58.5632 122.36 59.3271 121.793C60.091 121.227 61.0643 120.796 62.247 120.5C63.4298 120.204 64.822 120.056 66.4237 120.056H69.1034Z" fill="white"/>
<path d="M85.6991 132.272H79.4341V110.65C79.4341 109.097 79.7483 107.791 80.3766 106.732C81.005 105.672 81.8921 104.871 83.0379 104.329C84.1837 103.775 85.5389 103.498 87.1036 103.498C87.6457 103.498 88.157 103.535 88.6375 103.608C89.118 103.682 89.5862 103.775 90.042 103.886L90.0605 108.469C89.8388 108.407 89.6108 108.364 89.3767 108.34C89.1427 108.315 88.8531 108.303 88.5081 108.303C87.9044 108.303 87.3931 108.395 86.9743 108.58C86.5554 108.752 86.235 109.017 86.0133 109.374C85.8038 109.719 85.6991 110.144 85.6991 110.65V132.272ZM89.58 112.276V116.6H76.5511V112.276H89.58Z" fill="white"/>
<path d="M101.057 132.642C99.4303 132.642 97.9764 132.389 96.6951 131.884C95.4138 131.366 94.3296 130.658 93.4425 129.759C92.5677 128.859 91.8963 127.824 91.4281 126.654C90.9722 125.483 90.7443 124.245 90.7443 122.939V122.237C90.7443 120.771 90.9476 119.416 91.3542 118.171C91.7608 116.915 92.3645 115.818 93.1653 114.882C93.9661 113.945 94.9702 113.218 96.1776 112.701C97.3851 112.171 98.7896 111.906 100.391 111.906C101.808 111.906 103.077 112.134 104.198 112.59C105.319 113.046 106.268 113.699 107.044 114.549C107.833 115.399 108.43 116.428 108.837 117.635C109.256 118.843 109.465 120.198 109.465 121.701V124.233H93.1283V120.333H103.385V119.853C103.397 119.188 103.28 118.621 103.034 118.153C102.8 117.685 102.455 117.327 101.999 117.081C101.543 116.834 100.989 116.711 100.336 116.711C99.6582 116.711 99.0976 116.859 98.6541 117.155C98.2228 117.451 97.884 117.857 97.6376 118.375C97.4035 118.88 97.2372 119.465 97.1386 120.13C97.0401 120.796 96.9908 121.498 96.9908 122.237V122.939C96.9908 123.679 97.0894 124.35 97.2865 124.954C97.4959 125.557 97.7916 126.075 98.1736 126.506C98.5678 126.925 99.036 127.251 99.5781 127.486C100.133 127.72 100.761 127.837 101.463 127.837C102.313 127.837 103.151 127.677 103.977 127.356C104.802 127.036 105.51 126.506 106.102 125.767L108.929 129.13C108.523 129.709 107.944 130.27 107.192 130.812C106.453 131.354 105.566 131.798 104.531 132.143C103.496 132.475 102.338 132.642 101.057 132.642Z" fill="white"/>
<path d="M120.849 129.833C121.663 129.833 122.414 129.666 123.104 129.334C123.794 129.001 124.361 128.545 124.804 127.966C125.248 127.375 125.5 126.703 125.562 125.952H128.815C128.753 127.134 128.353 128.237 127.613 129.26C126.886 130.27 125.932 131.089 124.749 131.718C123.566 132.334 122.266 132.642 120.849 132.642C119.346 132.642 118.034 132.377 116.913 131.847C115.804 131.317 114.88 130.59 114.141 129.666C113.414 128.742 112.866 127.683 112.496 126.488C112.139 125.28 111.96 124.005 111.96 122.662V121.886C111.96 120.543 112.139 119.274 112.496 118.079C112.866 116.871 113.414 115.806 114.141 114.882C114.88 113.958 115.804 113.231 116.913 112.701C118.034 112.171 119.346 111.906 120.849 111.906C122.414 111.906 123.782 112.227 124.952 112.867C126.123 113.496 127.04 114.358 127.706 115.455C128.383 116.539 128.753 117.771 128.815 119.151H125.562C125.5 118.325 125.266 117.58 124.86 116.915C124.465 116.249 123.923 115.719 123.233 115.325C122.556 114.919 121.761 114.715 120.849 114.715C119.802 114.715 118.921 114.925 118.207 115.344C117.504 115.75 116.944 116.305 116.525 117.007C116.118 117.697 115.823 118.467 115.638 119.317C115.465 120.155 115.379 121.011 115.379 121.886V122.662C115.379 123.537 115.465 124.399 115.638 125.249C115.81 126.099 116.1 126.87 116.506 127.559C116.925 128.249 117.486 128.804 118.188 129.223C118.903 129.629 119.79 129.833 120.849 129.833Z" fill="white"/>
<path d="M144.449 128.853V118.559C144.449 117.771 144.289 117.087 143.969 116.508C143.661 115.917 143.193 115.461 142.564 115.14C141.936 114.82 141.16 114.66 140.236 114.66C139.373 114.66 138.616 114.808 137.963 115.103C137.322 115.399 136.817 115.787 136.447 116.268C136.09 116.748 135.911 117.266 135.911 117.82H132.492C132.492 117.106 132.677 116.397 133.047 115.695C133.416 114.993 133.946 114.358 134.636 113.791C135.338 113.212 136.176 112.756 137.149 112.424C138.135 112.079 139.232 111.906 140.439 111.906C141.893 111.906 143.174 112.153 144.283 112.646C145.404 113.138 146.279 113.884 146.907 114.882C147.548 115.867 147.868 117.106 147.868 118.596V127.911C147.868 128.576 147.924 129.284 148.035 130.036C148.158 130.787 148.336 131.434 148.57 131.976V132.272H145.004C144.831 131.878 144.696 131.354 144.597 130.701C144.499 130.036 144.449 129.42 144.449 128.853ZM145.041 120.149L145.078 122.551H141.622C140.648 122.551 139.78 122.631 139.016 122.791C138.252 122.939 137.611 123.167 137.094 123.475C136.576 123.783 136.182 124.171 135.911 124.64C135.64 125.095 135.505 125.631 135.505 126.247C135.505 126.876 135.646 127.449 135.93 127.966C136.213 128.483 136.638 128.896 137.205 129.204C137.784 129.5 138.492 129.648 139.33 129.648C140.377 129.648 141.301 129.426 142.102 128.982C142.903 128.539 143.538 127.997 144.006 127.356C144.486 126.716 144.745 126.093 144.782 125.49L146.242 127.134C146.156 127.652 145.922 128.225 145.54 128.853C145.158 129.481 144.646 130.085 144.006 130.664C143.377 131.231 142.626 131.705 141.751 132.087C140.889 132.457 139.915 132.642 138.831 132.642C137.476 132.642 136.287 132.377 135.264 131.847C134.254 131.317 133.466 130.609 132.899 129.722C132.344 128.822 132.067 127.818 132.067 126.709C132.067 125.637 132.277 124.695 132.696 123.882C133.114 123.056 133.718 122.373 134.507 121.83C135.295 121.276 136.244 120.857 137.353 120.574C138.462 120.29 139.7 120.149 141.067 120.149H145.041Z" fill="white"/>
<path d="M164.889 126.968C164.889 126.475 164.778 126.019 164.556 125.601C164.347 125.169 163.909 124.781 163.244 124.436C162.591 124.079 161.606 123.771 160.287 123.512C159.178 123.278 158.174 123.001 157.275 122.681C156.388 122.36 155.63 121.972 155.002 121.516C154.386 121.06 153.911 120.524 153.579 119.908C153.246 119.292 153.08 118.572 153.08 117.746C153.08 116.958 153.252 116.212 153.597 115.51C153.955 114.808 154.454 114.186 155.094 113.643C155.747 113.101 156.53 112.676 157.441 112.368C158.353 112.06 159.369 111.906 160.491 111.906C162.092 111.906 163.46 112.19 164.593 112.756C165.727 113.323 166.595 114.081 167.199 115.03C167.803 115.966 168.105 117.007 168.105 118.153H164.686C164.686 117.598 164.519 117.062 164.187 116.545C163.866 116.015 163.392 115.578 162.764 115.233C162.148 114.888 161.39 114.715 160.491 114.715C159.542 114.715 158.772 114.863 158.18 115.159C157.601 115.442 157.176 115.806 156.905 116.249C156.647 116.693 156.517 117.161 156.517 117.654C156.517 118.023 156.579 118.356 156.702 118.652C156.838 118.935 157.072 119.2 157.404 119.446C157.737 119.681 158.205 119.902 158.809 120.112C159.413 120.321 160.183 120.531 161.119 120.74C162.758 121.11 164.107 121.553 165.166 122.071C166.226 122.588 167.014 123.223 167.532 123.974C168.049 124.726 168.308 125.637 168.308 126.709C168.308 127.584 168.123 128.385 167.753 129.112C167.396 129.839 166.873 130.467 166.183 130.997C165.505 131.514 164.692 131.921 163.743 132.217C162.807 132.5 161.753 132.642 160.583 132.642C158.821 132.642 157.33 132.327 156.111 131.699C154.891 131.071 153.967 130.258 153.339 129.26C152.71 128.262 152.396 127.208 152.396 126.099H155.833C155.883 127.036 156.154 127.781 156.647 128.336C157.139 128.878 157.743 129.266 158.458 129.5C159.172 129.722 159.881 129.833 160.583 129.833C161.519 129.833 162.302 129.709 162.93 129.463C163.571 129.217 164.057 128.878 164.39 128.447C164.723 128.015 164.889 127.522 164.889 126.968Z" fill="white"/>
<path d="M176.513 112.276V132.272H173.076V112.276H176.513ZM172.817 106.972C172.817 106.418 172.984 105.949 173.316 105.567C173.661 105.185 174.166 104.994 174.832 104.994C175.485 104.994 175.984 105.185 176.329 105.567C176.686 105.949 176.864 106.418 176.864 106.972C176.864 107.502 176.686 107.958 176.329 108.34C175.984 108.709 175.485 108.894 174.832 108.894C174.166 108.894 173.661 108.709 173.316 108.34C172.984 107.958 172.817 107.502 172.817 106.972Z" fill="white"/>
<path d="M185.421 116.545V132.272H182.002V112.276H185.236L185.421 116.545ZM184.608 121.516L183.185 121.461C183.197 120.093 183.4 118.83 183.795 117.672C184.189 116.502 184.743 115.485 185.458 114.623C186.173 113.761 187.023 113.095 188.008 112.627C189.006 112.147 190.109 111.906 191.316 111.906C192.302 111.906 193.189 112.042 193.978 112.313C194.766 112.572 195.438 112.99 195.992 113.57C196.559 114.149 196.99 114.9 197.286 115.824C197.581 116.736 197.729 117.851 197.729 119.169V132.272H194.292V119.132C194.292 118.085 194.138 117.247 193.83 116.619C193.522 115.978 193.072 115.516 192.481 115.233C191.889 114.937 191.162 114.789 190.3 114.789C189.45 114.789 188.674 114.968 187.971 115.325C187.281 115.683 186.684 116.175 186.179 116.804C185.686 117.432 185.298 118.153 185.014 118.966C184.743 119.767 184.608 120.617 184.608 121.516Z" fill="white"/>
<path d="M202.017 122.496V122.071C202.017 120.629 202.226 119.292 202.645 118.06C203.064 116.816 203.668 115.738 204.456 114.826C205.245 113.902 206.2 113.188 207.321 112.682C208.442 112.165 209.699 111.906 211.091 111.906C212.495 111.906 213.758 112.165 214.879 112.682C216.013 113.188 216.974 113.902 217.762 114.826C218.563 115.738 219.173 116.816 219.592 118.06C220.011 119.292 220.22 120.629 220.22 122.071V122.496C220.22 123.937 220.011 125.274 219.592 126.506C219.173 127.738 218.563 128.816 217.762 129.74C216.974 130.652 216.019 131.366 214.898 131.884C213.789 132.389 212.532 132.642 211.128 132.642C209.723 132.642 208.46 132.389 207.339 131.884C206.218 131.366 205.257 130.652 204.456 129.74C203.668 128.816 203.064 127.738 202.645 126.506C202.226 125.274 202.017 123.937 202.017 122.496ZM205.436 122.071V122.496C205.436 123.494 205.553 124.436 205.787 125.323C206.021 126.198 206.372 126.974 206.84 127.652C207.321 128.329 207.918 128.865 208.633 129.26C209.347 129.642 210.179 129.833 211.128 129.833C212.064 129.833 212.883 129.642 213.586 129.26C214.3 128.865 214.892 128.329 215.36 127.652C215.828 126.974 216.179 126.198 216.413 125.323C216.66 124.436 216.783 123.494 216.783 122.496V122.071C216.783 121.085 216.66 120.155 216.413 119.28C216.179 118.393 215.822 117.611 215.341 116.933C214.873 116.243 214.282 115.701 213.567 115.307C212.865 114.912 212.039 114.715 211.091 114.715C210.154 114.715 209.329 114.912 208.614 115.307C207.912 115.701 207.321 116.243 206.84 116.933C206.372 117.611 206.021 118.393 205.787 119.28C205.553 120.155 205.436 121.085 205.436 122.071Z" fill="white"/>
<path fill-rule="evenodd" clip-rule="evenodd" d="M72.6043 0L74.5138 87.0516C74.5138 87.0516 53.2576 76.9191 41.2497 51.7114C36.5029 41.7657 33.2106 29.4753 33.2106 14.5267C33.2106 14.5267 40.6871 8.15543 58.1362 3.21877C62.8973 1.88198 67.7271 0.807461 72.6043 0V0Z" fill="url(#paint0_radial_115_8829)"/>
<path fill-rule="evenodd" clip-rule="evenodd" d="M103.997 55.0266C100.137 62.6398 95.1046 69.5894 89.0857 75.6171C81.268 83.4531 74.5278 87.0697 74.5278 87.0697L72.6063 0C100.639 3.44783 112.599 12.7606 112.599 12.7606C113.365 30.1383 109.516 44.0803 103.997 55.0266Z" fill="url(#paint1_radial_115_8829)"/>
<path fill-rule="evenodd" clip-rule="evenodd" d="M39.1254 18.7762C39.1254 18.7762 48.9663 10.3917 72.7187 6.3833L74.3529 80.6683C74.3529 80.6683 39.1014 63.8571 39.1254 18.7762Z" fill="url(#paint2_linear_115_8829)"/>
<g style="mix-blend-mode:soft-light" opacity="0.5">
<path fill-rule="evenodd" clip-rule="evenodd" d="M63.3438 8.3483L56.8789 55.997L41.2495 51.7113C36.5026 41.7657 33.2103 29.4753 33.2103 14.5267C33.2103 14.5267 40.6868 8.15541 58.136 3.21875L63.3438 8.3483Z" fill="#FBF9FA"/>
</g>
<g style="mix-blend-mode:soft-light" opacity="0.3">
<path fill-rule="evenodd" clip-rule="evenodd" d="M103.995 55.0263C100.136 62.6395 95.103 69.5891 89.0841 75.6168L85.0496 72.603L100.056 52.2656L103.995 55.0263Z" fill="#FBF9FA"/>
</g>
<path fill-rule="evenodd" clip-rule="evenodd" d="M106.869 17.2693C106.869 17.2693 96.6632 9.3248 72.7192 6.3833L74.3534 80.6683C74.3534 80.6683 108.875 62.308 106.869 17.2693Z" fill="url(#paint3_linear_115_8829)"/>
<path fill-rule="evenodd" clip-rule="evenodd" d="M72.7841 8.28198L74.3584 79.8244C74.3584 79.8244 56.6339 71.3856 46.8229 50.325C44.0788 44.4294 42.2092 38.1601 41.2739 31.7176C40.6954 27.9135 40.4012 24.0712 40.3939 20.2228C40.3939 20.2228 46.5834 14.9667 60.9857 10.91C64.8699 9.82582 68.8081 8.94858 72.7841 8.28198Z" fill="url(#paint4_linear_115_8829)"/>
<path fill-rule="evenodd" clip-rule="evenodd" d="M105.718 20.9883C106.437 62.7359 74.3578 79.8244 74.3578 79.8244L72.7834 8.28198C95.8295 11.115 105.652 18.7701 105.652 18.7701C105.688 19.5115 105.706 20.259 105.718 20.9883Z" fill="url(#paint5_linear_115_8829)"/>
<g style="mix-blend-mode:soft-light" opacity="0.5">
<path fill-rule="evenodd" clip-rule="evenodd" d="M73.5263 36.3226L73.9573 61.5182L46.7989 50.3248C43.0158 42.2297 40.3939 32.272 40.3939 20.2227C40.3939 20.2227 46.5655 14.9665 60.9677 10.9099L73.3946 36.0573L73.5263 36.3226Z" fill="#FBF9FA"/>
</g>
<g style="mix-blend-mode:soft-light">
<path fill-rule="evenodd" clip-rule="evenodd" d="M34.4064 13.6105C34.4064 13.6105 37.9381 13.7974 40.2068 12.5858C40.8691 12.226 41.4336 11.7082 41.8511 11.0777C42.2685 10.4472 42.5261 9.72322 42.6012 8.96924C42.6012 8.96924 36.1423 11.9951 34.4064 13.6105Z" fill="#FBF9FA"/>
</g>
<g style="mix-blend-mode:multiply" opacity="0.5">
<path fill-rule="evenodd" clip-rule="evenodd" d="M105.695 19.8371C92.7234 11.4164 72.9397 9.64431 72.9397 9.64431C62.0297 11.663 51.5618 15.614 42.0221 21.3139C41.0763 24.1409 41.2439 31.3741 41.2499 31.7116C40.6797 27.909 40.3936 24.0686 40.3939 20.2229C40.3939 20.2229 46.5834 14.9667 60.9857 10.9101C64.87 9.82792 68.8083 8.9527 72.7841 8.28809C95.8301 11.1211 105.653 18.7762 105.653 18.7762C105.689 19.5116 105.677 19.1077 105.695 19.8371Z" fill="#773891"/>
</g>
<path fill-rule="evenodd" clip-rule="evenodd" d="M72.6043 0L74.5138 87.0516C74.5138 87.0516 53.2576 76.9191 41.2497 51.7114C36.5029 41.7657 33.2106 29.4753 33.2106 14.5267C33.2106 14.5267 40.6871 8.15543 58.1362 3.21877C62.8973 1.88198 67.7271 0.807461 72.6043 0V0Z" fill="#61FFD9" style="mix-blend-mode:hue"/>
<path fill-rule="evenodd" clip-rule="evenodd" d="M103.997 55.0266C100.137 62.6398 95.1046 69.5894 89.0857 75.6171C81.268 83.4531 74.5278 87.0697 74.5278 87.0697L72.6063 0C100.639 3.44783 112.599 12.7606 112.599 12.7606C113.365 30.1383 109.516 44.0803 103.997 55.0266Z" fill="#61FFD9" style="mix-blend-mode:hue"/>
<path fill-rule="evenodd" clip-rule="evenodd" d="M72.6043 0L74.5138 87.0516C74.5138 87.0516 53.2576 76.9191 41.2497 51.7114C36.5029 41.7657 33.2106 29.4753 33.2106 14.5267C33.2106 14.5267 40.6871 8.15543 58.1362 3.21877C62.8973 1.88198 67.7271 0.807461 72.6043 0V0Z" fill="#04FFFF" style="mix-blend-mode:soft-light"/>
<path fill-rule="evenodd" clip-rule="evenodd" d="M103.997 55.0266C100.137 62.6398 95.1046 69.5894 89.0857 75.6171C81.268 83.4531 74.5278 87.0697 74.5278 87.0697L72.6063 0C100.639 3.44783 112.599 12.7606 112.599 12.7606C113.365 30.1383 109.516 44.0803 103.997 55.0266Z" fill="#04FFFF" style="mix-blend-mode:soft-light"/>
<path fill-rule="evenodd" clip-rule="evenodd" d="M72.7794 8.28223L74.3537 79.8246C74.3537 79.8246 56.6292 71.3859 46.8182 50.3252C44.0742 44.4296 42.2046 38.1603 41.2692 31.7178C40.6907 27.9138 40.3966 24.0714 40.3893 20.223C40.3893 20.223 46.5788 14.9669 60.9811 10.9103C64.8652 9.82606 68.8035 8.94882 72.7794 8.28223Z" fill="white" style="mix-blend-mode:color"/>
<path fill-rule="evenodd" clip-rule="evenodd" d="M105.713 20.9885C106.432 62.7362 74.3526 79.8246 74.3526 79.8246L72.7783 8.28223C95.8244 11.1152 105.647 18.7704 105.647 18.7704C105.683 19.5118 105.701 20.2592 105.713 20.9885Z" fill="white" style="mix-blend-mode:color"/>
<g opacity="0.7">
<path fill-rule="evenodd" clip-rule="evenodd" d="M72.7794 8.28223L74.3537 79.8246C74.3537 79.8246 56.6292 71.3859 46.8182 50.3252C44.0742 44.4296 42.2046 38.1603 41.2692 31.7178C40.6907 27.9138 40.3966 24.0714 40.3893 20.223C40.3893 20.223 46.5788 14.9669 60.9811 10.9103C64.8652 9.82606 68.8035 8.94882 72.7794 8.28223Z" fill="white" style="mix-blend-mode:soft-light"/>
<path fill-rule="evenodd" clip-rule="evenodd" d="M105.713 20.9885C106.432 62.7362 74.3526 79.8246 74.3526 79.8246L72.7783 8.28223C95.8244 11.1152 105.647 18.7704 105.647 18.7704C105.683 19.5118 105.701 20.2592 105.713 20.9885Z" fill="white" style="mix-blend-mode:soft-light"/>
</g>
<path fill-rule="evenodd" clip-rule="evenodd" d="M63.2488 39.6557L65.0506 36.2862L73.5088 41.2952L84.4571 29.0771L86.6779 30.8433L73.6943 49.7219L63.2488 39.6557Z" fill="url(#paint6_linear_115_8829)"/>
<defs>
<radialGradient id="paint0_radial_115_8829" cx="0" cy="0" r="1" gradientUnits="userSpaceOnUse" gradientTransform="translate(70.6639 18.0657) rotate(-1.27884) scale(58.2917 58.6972)">
<stop stop-color="#8461D3"/>
<stop offset="0.99" stop-color="#7138B6"/>
</radialGradient>
<radialGradient id="paint1_radial_115_8829" cx="0" cy="0" r="1" gradientUnits="userSpaceOnUse" gradientTransform="translate(75.2778 39.8967) rotate(-1.27884) scale(36.0717 36.3226)">
<stop stop-color="#6D47D3"/>
<stop offset="0.99" stop-color="#542492"/>
</radialGradient>
<linearGradient id="paint2_linear_115_8829" x1="57.4296" y1="81.0402" x2="55.7714" y2="6.76187" gradientUnits="userSpaceOnUse">
<stop stop-color="#3C1460"/>
<stop offset="0.99" stop-color="#3C1460"/>
</linearGradient>
<linearGradient id="paint3_linear_115_8829" x1="59328.8" y1="15175.2" x2="59144.4" y2="6018.11" gradientUnits="userSpaceOnUse">
<stop stop-color="#603082"/>
<stop offset="0.99" stop-color="#3C145F"/>
</linearGradient>
<linearGradient id="paint4_linear_115_8829" x1="58.0449" y1="80.1823" x2="56.448" y2="8.6459" gradientUnits="userSpaceOnUse">
<stop offset="0.04" stop-color="#A4C6FF"/>
<stop offset="0.24" stop-color="#BD9BD2"/>
<stop offset="1" stop-color="#EBD7E3"/>
</linearGradient>
<linearGradient id="paint5_linear_115_8829" x1="90.6838" y1="79.4536" x2="89.0869" y2="7.91727" gradientUnits="userSpaceOnUse">
<stop stop-color="#83A8FF"/>
<stop offset="0.21" stop-color="#8E7BBB"/>
<stop offset="1" stop-color="#EBD7E3"/>
</linearGradient>
<linearGradient id="paint6_linear_115_8829" x1="62.2372" y1="45.1314" x2="86.0797" y2="44.6065" gradientUnits="userSpaceOnUse">
<stop stop-color="#2C2A88"/>
<stop offset="0.99" stop-color="#0C3C5A"/>
</linearGradient>
</defs>
</svg>
