<svg width="40" height="40" viewBox="0 0 40 40" fill="none" xmlns="http://www.w3.org/2000/svg">
<g clip-path="url(#clip0_1579_1928)">
<path d="M38.9657 13.9603L26.0337 1.02748C24.663 -0.342495 22.433 -0.342495 21.0631 1.02748L9.34952 12.741H21.4059C24.6364 12.741 27.2639 15.3693 27.2639 18.599V30.6328L38.9657 18.9309C39.6296 18.267 39.9952 17.3844 39.9952 16.4456C39.9952 15.5068 39.6296 14.6242 38.9657 13.9603ZM23.7507 10.5541C23.104 10.5541 22.5783 10.0292 22.5783 9.38247C22.5783 8.73576 23.1032 8.21089 23.7499 8.21089H23.7507C24.3974 8.21089 24.9223 8.73576 24.9223 9.38247C24.9223 10.0292 24.3974 10.5541 23.7507 10.5541ZM30.624 17.4274C29.9773 17.4274 29.4516 16.9025 29.4516 16.2558C29.4516 15.6091 29.9765 15.0842 30.6232 15.0842H30.624C31.2707 15.0842 31.7956 15.6091 31.7956 16.2558C31.7956 16.9025 31.2707 17.4274 30.624 17.4274Z" fill="url(#paint0_linear_1579_1928)"/>
<path d="M21.4059 15.0842H3.51962C1.58181 15.0842 0.00485229 16.6612 0.00485229 18.599V36.4853C0.00485229 38.4231 1.58181 40 3.51962 40H21.4059C23.3437 40 24.9206 38.4231 24.9206 36.4853V18.599C24.9206 16.6612 23.3438 15.0842 21.4059 15.0842ZM8.75436 34.2983C8.10764 34.2983 7.58199 33.7734 7.58199 33.1267C7.58199 32.48 8.10686 31.9551 8.75358 31.9551H8.75436C9.40107 31.9551 9.92595 32.48 9.92595 33.1267C9.92595 33.7734 9.40107 34.2983 8.75436 34.2983ZM8.75436 28.6747C8.10764 28.6747 7.58199 28.1498 7.58199 27.5031C7.58199 26.8564 8.10686 26.3315 8.75358 26.3315H8.75436C9.40107 26.3315 9.92595 26.8564 9.92595 27.5031C9.92595 28.1498 9.40107 28.6747 8.75436 28.6747ZM8.75436 23.051C8.10764 23.051 7.58199 22.5262 7.58199 21.8794C7.58199 21.2327 8.10686 20.7079 8.75358 20.7079H8.75436C9.40107 20.7079 9.92595 21.2327 9.92595 21.8794C9.92595 22.5262 9.40107 23.051 8.75436 23.051ZM16.2525 34.2983C15.6058 34.2983 15.0802 33.7734 15.0802 33.1267C15.0802 32.48 15.605 31.9551 16.2517 31.9551H16.2525C16.8992 31.9551 17.4241 32.48 17.4241 33.1267C17.4241 33.7734 16.8992 34.2983 16.2525 34.2983ZM16.2525 28.6747C15.6058 28.6747 15.0802 28.1498 15.0802 27.5031C15.0802 26.8564 15.605 26.3315 16.2517 26.3315H16.2525C16.8992 26.3315 17.4241 26.8564 17.4241 27.5031C17.4241 28.1498 16.8992 28.6747 16.2525 28.6747ZM16.2525 23.051C15.6058 23.051 15.0802 22.5262 15.0802 21.8794C15.0802 21.2327 15.605 20.7079 16.2517 20.7079H16.2525C16.8992 20.7079 17.4241 21.2327 17.4241 21.8794C17.4241 22.5262 16.8992 23.051 16.2525 23.051Z" fill="url(#paint1_linear_1579_1928)"/>
</g>
<defs>
<linearGradient id="paint0_linear_1579_1928" x1="24.6723" y1="30.6328" x2="24.6723" y2="-9.85965e-05" gradientUnits="userSpaceOnUse">
<stop stop-color="#9F2FFF"/>
<stop offset="1" stop-color="#0BB1D3"/>
</linearGradient>
<linearGradient id="paint1_linear_1579_1928" x1="12.4627" y1="40" x2="12.4627" y2="15.0841" gradientUnits="userSpaceOnUse">
<stop stop-color="#9F2FFF"/>
<stop offset="1" stop-color="#0BB1D3"/>
</linearGradient>
<clipPath id="clip0_1579_1928">
<rect width="40" height="40" fill="white"/>
</clipPath>
</defs>
</svg>
