<svg width="32" height="32" viewBox="0 0 32 32" fill="none" xmlns="http://www.w3.org/2000/svg">
<path d="M26.4165 13.3533C26.2327 12.8065 25.7737 12.4142 25.2165 12.3287L19.8262 11.5015L17.4105 6.376C17.1585 5.83525 16.6387 5.5 16.0552 5.5C15.4717 5.5 14.952 5.836 14.7 6.3745L12.2835 11.5023L6.89322 12.3295C6.33672 12.415 5.87697 12.808 5.69322 13.354C5.50422 13.9172 5.64147 14.53 6.05097 14.9515L9.97347 18.988L9.04647 24.697C8.94897 25.2985 9.19197 25.885 9.68172 26.2292C9.93672 26.4085 10.2322 26.4993 10.5292 26.4993C10.7745 26.4993 11.0197 26.437 11.2455 26.3125L16.0425 23.6365L20.8657 26.3125C21.3637 26.5893 21.963 26.557 22.4287 26.2292C22.9185 25.8857 23.1615 25.2985 23.064 24.6978L22.137 18.9888L26.0595 14.9523C26.469 14.5308 26.6062 13.9187 26.4172 13.3547L26.4165 13.3533Z" fill="#FFD400"/>
</svg>
