<svg width="225" height="90" viewBox="0 0 225 90" fill="none" xmlns="http://www.w3.org/2000/svg">
<path fill-rule="evenodd" clip-rule="evenodd" d="M29.9392 11.4894L31.3905 77.6486C31.3905 77.6486 15.2358 69.9479 6.10977 50.79C2.50214 43.2313 0 33.8906 0 22.5297C0 22.5297 5.68213 17.6875 18.9435 13.9356C22.5619 12.9197 26.2326 12.1031 29.9392 11.4894V11.4894Z" fill="url(#paint0_radial_62_8735)"/>
<path fill-rule="evenodd" clip-rule="evenodd" d="M53.7974 53.3096C50.8642 59.0956 47.0393 64.3773 42.465 68.9584C36.5236 74.9137 31.401 77.6623 31.401 77.6623L29.9407 11.4894C51.2453 14.1097 60.3349 21.1874 60.3349 21.1874C60.9172 34.3945 57.9919 44.9904 53.7974 53.3096Z" fill="url(#paint1_radial_62_8735)"/>
<path fill-rule="evenodd" clip-rule="evenodd" d="M4.49537 25.7593C4.49537 25.7593 11.9745 19.3871 30.0263 16.3407L31.2683 72.7973C31.2683 72.7973 4.47717 60.0208 4.49537 25.7593Z" fill="url(#paint2_linear_62_8735)"/>
<g style="mix-blend-mode:soft-light" opacity="0.5">
<path fill-rule="evenodd" clip-rule="evenodd" d="M22.9014 17.834L17.9881 54.047L6.10977 50.7899C2.50214 43.2312 0 33.8905 0 22.5296C0 22.5296 5.68213 17.6874 18.9435 13.9355L22.9014 17.834Z" fill="#FBF9FA"/>
</g>
<g style="mix-blend-mode:soft-light" opacity="0.3">
<path fill-rule="evenodd" clip-rule="evenodd" d="M53.7964 53.3094C50.8631 59.0955 47.0383 64.3772 42.464 68.9582L39.3977 66.6677L50.8029 51.2113L53.7964 53.3094Z" fill="#FBF9FA"/>
</g>
<path fill-rule="evenodd" clip-rule="evenodd" d="M55.9806 24.614C55.9806 24.614 48.224 18.5762 30.0266 16.3407L31.2686 72.7973C31.2686 72.7973 57.5047 58.8435 55.9806 24.614Z" fill="url(#paint3_linear_62_8735)"/>
<path fill-rule="evenodd" clip-rule="evenodd" d="M30.076 17.7836L31.2725 72.1558C31.2725 72.1558 17.8018 65.7423 10.3455 49.7362C8.26001 45.2556 6.83911 40.4909 6.12823 35.5946C5.68858 32.7035 5.46503 29.7833 5.45947 26.8586C5.45947 26.8586 10.1635 22.8639 21.1092 19.7809C24.0612 18.9569 27.0543 18.2902 30.076 17.7836Z" fill="url(#paint4_linear_62_8735)"/>
<path fill-rule="evenodd" clip-rule="evenodd" d="M55.1059 27.4404C55.6519 59.1686 31.2719 72.1558 31.2719 72.1558L30.0754 17.7836C47.5904 19.9367 55.0559 25.7546 55.0559 25.7546C55.0832 26.318 55.0968 26.8861 55.1059 27.4404Z" fill="url(#paint5_linear_62_8735)"/>
<g style="mix-blend-mode:soft-light" opacity="0.5">
<path fill-rule="evenodd" clip-rule="evenodd" d="M30.6401 39.0946L30.9677 58.2433L10.3273 49.7363C7.45209 43.584 5.45947 36.0162 5.45947 26.8587C5.45947 26.8587 10.1498 22.864 21.0956 19.781L30.54 38.8931L30.6401 39.0946Z" fill="#FBF9FA"/>
</g>
<g style="mix-blend-mode:soft-light">
<path fill-rule="evenodd" clip-rule="evenodd" d="M0.908936 21.8333C0.908936 21.8333 3.59305 21.9753 5.31725 21.0545C5.82058 20.7811 6.24966 20.3875 6.56691 19.9083C6.88415 19.4291 7.07989 18.8789 7.13699 18.3059C7.13699 18.3059 2.22825 20.6056 0.908936 21.8333Z" fill="#FBF9FA"/>
</g>
<g style="mix-blend-mode:multiply" opacity="0.5">
<path fill-rule="evenodd" clip-rule="evenodd" d="M55.0883 26.5655C45.2299 20.1658 30.1943 18.819 30.1943 18.819C21.9027 20.3532 13.947 23.356 6.6969 27.6879C5.9781 29.8364 6.10548 35.3336 6.11003 35.5901C5.6767 32.7001 5.45924 29.7815 5.45947 26.8587C5.45947 26.8587 10.1635 22.864 21.1092 19.781C24.0613 18.9585 27.0544 18.2934 30.076 17.7883C47.591 19.9414 55.0564 25.7593 55.0564 25.7593C55.0837 26.3181 55.0746 26.0112 55.0883 26.5655Z" fill="#773891"/>
</g>
<path fill-rule="evenodd" clip-rule="evenodd" d="M29.9392 11.4894L31.3905 77.6486C31.3905 77.6486 15.2358 69.9479 6.10977 50.79C2.50214 43.2313 0 33.8906 0 22.5297C0 22.5297 5.68213 17.6875 18.9435 13.9356C22.5619 12.9197 26.2326 12.1031 29.9392 11.4894V11.4894Z" fill="#61FFD9" style="mix-blend-mode:hue"/>
<path fill-rule="evenodd" clip-rule="evenodd" d="M53.7974 53.3096C50.8642 59.0956 47.0393 64.3773 42.465 68.9584C36.5236 74.9137 31.401 77.6623 31.401 77.6623L29.9407 11.4894C51.2453 14.1097 60.3349 21.1874 60.3349 21.1874C60.9172 34.3945 57.9919 44.9904 53.7974 53.3096Z" fill="#61FFD9" style="mix-blend-mode:hue"/>
<path fill-rule="evenodd" clip-rule="evenodd" d="M29.9392 11.4894L31.3905 77.6486C31.3905 77.6486 15.2358 69.9479 6.10977 50.79C2.50214 43.2313 0 33.8906 0 22.5297C0 22.5297 5.68213 17.6875 18.9435 13.9356C22.5619 12.9197 26.2326 12.1031 29.9392 11.4894V11.4894Z" fill="#04FFFF" style="mix-blend-mode:soft-light"/>
<path fill-rule="evenodd" clip-rule="evenodd" d="M53.7974 53.3096C50.8642 59.0956 47.0393 64.3773 42.465 68.9584C36.5236 74.9137 31.401 77.6623 31.401 77.6623L29.9407 11.4894C51.2453 14.1097 60.3349 21.1874 60.3349 21.1874C60.9172 34.3945 57.9919 44.9904 53.7974 53.3096Z" fill="#04FFFF" style="mix-blend-mode:soft-light"/>
<path fill-rule="evenodd" clip-rule="evenodd" d="M30.0723 17.7838L31.2688 72.156C31.2688 72.156 17.7982 65.7425 10.3418 49.7364C8.25634 45.2558 6.83544 40.4911 6.12456 35.5948C5.68492 32.7037 5.46137 29.7835 5.45581 26.8588C5.45581 26.8588 10.1598 22.8641 21.1056 19.7811C24.0575 18.9571 27.0506 18.2904 30.0723 17.7838Z" fill="white" style="mix-blend-mode:color"/>
<path fill-rule="evenodd" clip-rule="evenodd" d="M55.102 27.4406C55.648 59.1688 31.268 72.156 31.268 72.156L30.0715 17.7838C47.5865 19.9368 55.052 25.7547 55.052 25.7547C55.0793 26.3182 55.0929 26.8863 55.102 27.4406Z" fill="white" style="mix-blend-mode:color"/>
<g opacity="0.7">
<path fill-rule="evenodd" clip-rule="evenodd" d="M30.0723 17.7838L31.2688 72.156C31.2688 72.156 17.7982 65.7425 10.3418 49.7364C8.25634 45.2558 6.83544 40.4911 6.12456 35.5948C5.68492 32.7037 5.46137 29.7835 5.45581 26.8588C5.45581 26.8588 10.1598 22.8641 21.1056 19.7811C24.0575 18.9571 27.0506 18.2904 30.0723 17.7838Z" fill="white" style="mix-blend-mode:soft-light"/>
<path fill-rule="evenodd" clip-rule="evenodd" d="M55.102 27.4406C55.648 59.1688 31.268 72.156 31.268 72.156L30.0715 17.7838C47.5865 19.9368 55.052 25.7547 55.052 25.7547C55.0793 26.3182 55.0929 26.8863 55.102 27.4406Z" fill="white" style="mix-blend-mode:soft-light"/>
</g>
<path fill-rule="evenodd" clip-rule="evenodd" d="M22.8291 41.6278L24.1985 39.067L30.6267 42.8739L38.9474 33.5881L40.6352 34.9304L30.7677 49.2781L22.8291 41.6278Z" fill="url(#paint6_linear_62_8735)"/>
<path d="M83.7725 52.8334L86.4355 43.8078H87.2698L86.5956 46.4877L83.7557 56.0779H82.9551L83.7725 52.8334ZM80.6797 43.8078L82.9214 52.7491L83.5956 56.0779H82.7613L79.6179 43.8078H80.6797ZM90.8598 52.7491L93.0677 43.8078H94.1296L90.9947 56.0779H90.1604L90.8598 52.7491ZM87.3625 43.8078L89.9918 52.8334L90.8008 56.0779H90.0002L87.2193 46.4877L86.5367 43.8078H87.3625Z" fill="white"/>
<path d="M96.9021 43.1337V56.0779H95.8993V43.1337H96.9021ZM96.6746 50.9541L96.2279 50.7013C96.2617 50.162 96.3712 49.6563 96.5566 49.1844C96.742 48.7125 96.992 48.2967 97.3066 47.9372C97.6269 47.5776 98.0005 47.2967 98.4274 47.0945C98.86 46.8922 99.3376 46.7911 99.8601 46.7911C100.315 46.7911 100.722 46.8529 101.082 46.9765C101.442 47.1001 101.748 47.2967 102.001 47.5664C102.253 47.836 102.444 48.1816 102.574 48.6029C102.708 49.0243 102.776 49.5383 102.776 50.1451V56.0779H101.765V50.1367C101.765 49.5074 101.678 49.0159 101.503 48.6619C101.329 48.3024 101.082 48.0467 100.762 47.895C100.442 47.7433 100.062 47.6675 99.6241 47.6675C99.141 47.6675 98.7168 47.7742 98.3516 47.9877C97.992 48.1956 97.6887 48.4681 97.4415 48.8052C97.1999 49.1366 97.0145 49.4934 96.8853 49.8754C96.7561 50.2518 96.6858 50.6114 96.6746 50.9541Z" fill="white"/>
<path d="M108.894 56.2464C108.299 56.2464 107.751 56.1368 107.251 55.9177C106.756 55.6986 106.324 55.3896 105.953 54.9907C105.588 54.5919 105.304 54.1199 105.102 53.575C104.905 53.0244 104.807 52.4233 104.807 51.7716V51.4092C104.807 50.7069 104.911 50.0721 105.119 49.5046C105.327 48.9372 105.613 48.4512 105.978 48.0467C106.343 47.6422 106.759 47.3332 107.225 47.1197C107.697 46.9006 108.192 46.7911 108.709 46.7911C109.287 46.7911 109.801 46.895 110.251 47.1029C110.7 47.3051 111.077 47.5945 111.38 47.9709C111.689 48.3417 111.922 48.7827 112.08 49.294C112.237 49.7996 112.315 50.3586 112.315 50.971V51.5862H105.414V50.7266H111.313V50.6086C111.301 50.0973 111.197 49.6198 111.001 49.176C110.81 48.7265 110.523 48.3613 110.141 48.0804C109.759 47.7995 109.282 47.6591 108.709 47.6591C108.282 47.6591 107.888 47.749 107.529 47.9287C107.175 48.1085 106.869 48.367 106.61 48.7041C106.357 49.0355 106.161 49.4316 106.02 49.8923C105.886 50.3474 105.818 50.853 105.818 51.4092V51.7716C105.818 52.2772 105.891 52.7491 106.037 53.1873C106.189 53.6199 106.402 54.002 106.678 54.3334C106.959 54.6649 107.29 54.9233 107.672 55.1087C108.054 55.2941 108.475 55.3868 108.936 55.3868C109.476 55.3868 109.953 55.2885 110.369 55.0919C110.785 54.8896 111.158 54.5722 111.49 54.1396L112.122 54.6284C111.925 54.9205 111.678 55.1902 111.38 55.4374C111.088 55.6846 110.737 55.8812 110.327 56.0273C109.917 56.1734 109.439 56.2464 108.894 56.2464Z" fill="white"/>
<path d="M115.307 48.4681V56.0779H114.304V46.9596H115.282L115.307 48.4681ZM118.535 46.8922L118.509 47.8192C118.397 47.8023 118.288 47.7883 118.181 47.7771C118.074 47.7658 117.959 47.7602 117.835 47.7602C117.397 47.7602 117.012 47.8417 116.681 48.0046C116.355 48.1619 116.08 48.3838 115.855 48.6703C115.63 48.9512 115.459 49.2827 115.341 49.6648C115.223 50.0412 115.155 50.4457 115.139 50.8783L114.768 51.0215C114.768 50.426 114.83 49.8726 114.953 49.3614C115.077 48.8501 115.265 48.4035 115.518 48.0214C115.776 47.6338 116.099 47.3332 116.487 47.1197C116.88 46.9006 117.341 46.7911 117.869 46.7911C117.998 46.7911 118.125 46.8023 118.248 46.8248C118.377 46.8416 118.473 46.8641 118.535 46.8922Z" fill="white"/>
<path d="M123.473 56.2464C122.878 56.2464 122.33 56.1368 121.83 55.9177C121.335 55.6986 120.903 55.3896 120.532 54.9907C120.167 54.5919 119.883 54.1199 119.681 53.575C119.484 53.0244 119.386 52.4233 119.386 51.7716V51.4092C119.386 50.7069 119.49 50.0721 119.698 49.5046C119.906 48.9372 120.192 48.4512 120.557 48.0467C120.922 47.6422 121.338 47.3332 121.805 47.1197C122.276 46.9006 122.771 46.7911 123.288 46.7911C123.866 46.7911 124.38 46.895 124.83 47.1029C125.279 47.3051 125.656 47.5945 125.959 47.9709C126.268 48.3417 126.501 48.7827 126.659 49.294C126.816 49.7996 126.895 50.3586 126.895 50.971V51.5862H119.993V50.7266H125.892V50.6086C125.88 50.0973 125.777 49.6198 125.58 49.176C125.389 48.7265 125.102 48.3613 124.72 48.0804C124.338 47.7995 123.861 47.6591 123.288 47.6591C122.861 47.6591 122.467 47.749 122.108 47.9287C121.754 48.1085 121.448 48.367 121.189 48.7041C120.937 49.0355 120.74 49.4316 120.599 49.8923C120.465 50.3474 120.397 50.853 120.397 51.4092V51.7716C120.397 52.2772 120.47 52.7491 120.616 53.1873C120.768 53.6199 120.981 54.002 121.257 54.3334C121.538 54.6649 121.869 54.9233 122.251 55.1087C122.633 55.2941 123.055 55.3868 123.515 55.3868C124.055 55.3868 124.532 55.2885 124.948 55.0919C125.364 54.8896 125.737 54.5722 126.069 54.1396L126.701 54.6284C126.504 54.9205 126.257 55.1902 125.959 55.4374C125.667 55.6846 125.316 55.8812 124.906 56.0273C124.496 56.1734 124.018 56.2464 123.473 56.2464Z" fill="white"/>
<path d="M140.96 55.193V56.0779H134.058V55.193H140.96ZM134.369 43.8078V56.0779H133.333V43.8078H134.369ZM140.1 49.3108V50.1957H134.058V49.3108H140.1ZM140.917 43.8078V44.7011H134.058V43.8078H140.917Z" fill="white"/>
<path d="M143.926 48.9063V56.0779H142.923V46.9596H143.884L143.926 48.9063ZM143.698 50.9541L143.252 50.7013C143.285 50.162 143.395 49.6563 143.58 49.1844C143.766 48.7125 144.016 48.2967 144.33 47.9372C144.651 47.5776 145.024 47.2967 145.451 47.0945C145.884 46.8922 146.361 46.7911 146.884 46.7911C147.339 46.7911 147.746 46.8529 148.106 46.9765C148.465 47.1001 148.772 47.2967 149.024 47.5664C149.277 47.836 149.468 48.1816 149.597 48.6029C149.732 49.0243 149.8 49.5383 149.8 50.1451V56.0779H148.788V50.1367C148.788 49.5074 148.701 49.0159 148.527 48.6619C148.353 48.3024 148.106 48.0467 147.786 47.895C147.465 47.7433 147.086 47.6675 146.648 47.6675C146.165 47.6675 145.741 47.7742 145.375 47.9877C145.016 48.1956 144.712 48.4681 144.465 48.8052C144.224 49.1366 144.038 49.4934 143.909 49.8754C143.78 50.2518 143.71 50.6114 143.698 50.9541Z" fill="white"/>
<path d="M152.488 46.9596H153.499V57.165C153.499 57.7212 153.407 58.1931 153.221 58.5807C153.036 58.9684 152.766 59.2605 152.412 59.4572C152.058 59.6594 151.623 59.7605 151.106 59.7605C150.965 59.7605 150.814 59.7465 150.651 59.7184C150.488 59.6903 150.339 59.651 150.204 59.6004L150.221 58.7577C150.322 58.7858 150.443 58.8111 150.583 58.8336C150.718 58.8616 150.85 58.8757 150.98 58.8757C151.305 58.8757 151.581 58.8111 151.805 58.6819C152.03 58.5583 152.199 58.3701 152.311 58.1172C152.429 57.8644 152.488 57.547 152.488 57.165V46.9596ZM152.311 44.3219C152.311 44.1309 152.373 43.9708 152.496 43.8416C152.62 43.7067 152.789 43.6393 153.002 43.6393C153.216 43.6393 153.384 43.7067 153.508 43.8416C153.637 43.9708 153.702 44.1309 153.702 44.3219C153.702 44.5073 153.637 44.6674 153.508 44.8023C153.384 44.9315 153.216 44.9961 153.002 44.9961C152.789 44.9961 152.62 44.9315 152.496 44.8023C152.373 44.6674 152.311 44.5073 152.311 44.3219Z" fill="white"/>
<path d="M155.8 51.662V51.3839C155.8 50.721 155.895 50.1086 156.086 49.5468C156.277 48.985 156.55 48.499 156.904 48.0889C157.263 47.6787 157.693 47.3613 158.193 47.1366C158.693 46.9062 159.249 46.7911 159.862 46.7911C160.48 46.7911 161.039 46.9062 161.539 47.1366C162.039 47.3613 162.469 47.6787 162.828 48.0889C163.188 48.499 163.463 48.985 163.654 49.5468C163.845 50.1086 163.941 50.721 163.941 51.3839V51.662C163.941 52.3249 163.845 52.9373 163.654 53.4991C163.463 54.0553 163.188 54.5385 162.828 54.9486C162.474 55.3587 162.047 55.679 161.547 55.9093C161.047 56.134 160.491 56.2464 159.879 56.2464C159.261 56.2464 158.702 56.134 158.202 55.9093C157.702 55.679 157.272 55.3587 156.912 54.9486C156.553 54.5385 156.277 54.0553 156.086 53.4991C155.895 52.9373 155.8 52.3249 155.8 51.662ZM156.803 51.3839V51.662C156.803 52.162 156.87 52.6367 157.005 53.0862C157.14 53.53 157.336 53.9261 157.595 54.2744C157.853 54.6171 158.174 54.8868 158.556 55.0834C158.938 55.2801 159.379 55.3784 159.879 55.3784C160.373 55.3784 160.808 55.2801 161.185 55.0834C161.567 54.8868 161.887 54.6171 162.146 54.2744C162.404 53.9261 162.598 53.53 162.727 53.0862C162.862 52.6367 162.929 52.162 162.929 51.662V51.3839C162.929 50.8895 162.862 50.4204 162.727 49.9766C162.598 49.5327 162.401 49.1366 162.137 48.7883C161.879 48.44 161.558 48.1647 161.176 47.9625C160.794 47.7602 160.356 47.6591 159.862 47.6591C159.367 47.6591 158.929 47.7602 158.547 47.9625C158.171 48.1647 157.851 48.44 157.586 48.7883C157.328 49.1366 157.131 49.5327 156.997 49.9766C156.867 50.4204 156.803 50.8895 156.803 51.3839Z" fill="white"/>
<path d="M168.601 55.1677L171.441 46.9596H172.528L168.668 57.5442C168.59 57.7521 168.488 57.9824 168.365 58.2352C168.247 58.488 168.09 58.7296 167.893 58.96C167.702 59.1959 167.46 59.3869 167.168 59.533C166.882 59.6847 166.531 59.7605 166.115 59.7605C166.008 59.7605 165.87 59.7465 165.702 59.7184C165.539 59.6959 165.421 59.6735 165.348 59.651L165.339 58.7998C165.401 58.8167 165.491 58.8307 165.609 58.842C165.727 58.8532 165.809 58.8588 165.854 58.8588C166.219 58.8588 166.525 58.797 166.772 58.6734C167.025 58.5498 167.236 58.3644 167.404 58.1172C167.573 57.8757 167.722 57.5723 167.851 57.2071L168.601 55.1677ZM165.946 46.9596L168.854 54.7885L169.123 55.8419L168.39 56.2548L164.851 46.9596H165.946Z" fill="white"/>
<path d="M175.056 48.8473V56.0779H174.045V46.9596H175.014L175.056 48.8473ZM174.871 50.9541L174.382 50.7013C174.416 50.162 174.517 49.6563 174.685 49.1844C174.859 48.7125 175.101 48.2967 175.41 47.9372C175.719 47.5776 176.09 47.2967 176.522 47.0945C176.955 46.8922 177.447 46.7911 177.997 46.7911C178.441 46.7911 178.843 46.8529 179.202 46.9765C179.567 47.0945 179.876 47.2827 180.129 47.5411C180.388 47.7939 180.587 48.1254 180.728 48.5355C180.868 48.9456 180.938 49.4372 180.938 50.0103V56.0779H179.935V50.044C179.935 49.4372 179.84 48.9625 179.649 48.6198C179.463 48.2771 179.202 48.0327 178.865 47.8866C178.534 47.7405 178.149 47.6675 177.711 47.6675C177.194 47.6675 176.756 47.7742 176.396 47.9877C176.042 48.1956 175.753 48.4681 175.528 48.8052C175.309 49.1366 175.146 49.4934 175.039 49.8754C174.932 50.2518 174.876 50.6114 174.871 50.9541ZM180.93 50.162L180.256 50.1788C180.284 49.735 180.385 49.3108 180.559 48.9063C180.739 48.5018 180.983 48.1422 181.292 47.8276C181.601 47.5074 181.969 47.2546 182.396 47.0692C182.829 46.8838 183.315 46.7911 183.854 46.7911C184.326 46.7911 184.747 46.8557 185.118 46.9849C185.489 47.1085 185.801 47.3079 186.054 47.5832C186.312 47.8529 186.509 48.1984 186.643 48.6198C186.778 49.0411 186.846 49.5468 186.846 50.1367V56.0779H185.834V50.1282C185.834 49.4822 185.739 48.9821 185.548 48.6282C185.363 48.2686 185.104 48.0186 184.773 47.8782C184.441 47.7377 184.053 47.6675 183.61 47.6675C183.171 47.6731 182.787 47.7546 182.455 47.9119C182.124 48.0636 181.846 48.2658 181.621 48.5187C181.402 48.7659 181.233 49.0327 181.115 49.3192C181.003 49.6058 180.941 49.8867 180.93 50.162Z" fill="white"/>
<path d="M192.93 56.2464C192.335 56.2464 191.787 56.1368 191.287 55.9177C190.792 55.6986 190.36 55.3896 189.989 54.9907C189.624 54.5919 189.34 54.1199 189.138 53.575C188.941 53.0244 188.843 52.4233 188.843 51.7716V51.4092C188.843 50.7069 188.947 50.0721 189.155 49.5046C189.363 48.9372 189.649 48.4512 190.014 48.0467C190.38 47.6422 190.795 47.3332 191.262 47.1197C191.733 46.9006 192.228 46.7911 192.745 46.7911C193.323 46.7911 193.837 46.895 194.287 47.1029C194.736 47.3051 195.113 47.5945 195.416 47.9709C195.725 48.3417 195.958 48.7827 196.116 49.294C196.273 49.7996 196.352 50.3586 196.352 50.971V51.5862H189.45V50.7266H195.349V50.6086C195.338 50.0973 195.234 49.6198 195.037 49.176C194.846 48.7265 194.559 48.3613 194.177 48.0804C193.795 47.7995 193.318 47.6591 192.745 47.6591C192.318 47.6591 191.925 47.749 191.565 47.9287C191.211 48.1085 190.905 48.367 190.646 48.7041C190.394 49.0355 190.197 49.4316 190.056 49.8923C189.922 50.3474 189.854 50.853 189.854 51.4092V51.7716C189.854 52.2772 189.927 52.7491 190.073 53.1873C190.225 53.6199 190.439 54.002 190.714 54.3334C190.995 54.6649 191.326 54.9233 191.708 55.1087C192.09 55.2941 192.512 55.3868 192.972 55.3868C193.512 55.3868 193.989 55.2885 194.405 55.0919C194.821 54.8896 195.194 54.5722 195.526 54.1396L196.158 54.6284C195.961 54.9205 195.714 55.1902 195.416 55.4374C195.124 55.6846 194.773 55.8812 194.363 56.0273C193.953 56.1734 193.475 56.2464 192.93 56.2464Z" fill="white"/>
<path d="M199.343 48.9063V56.0779H198.34V46.9596H199.301L199.343 48.9063ZM199.116 50.9541L198.669 50.7013C198.703 50.162 198.812 49.6563 198.998 49.1844C199.183 48.7125 199.433 48.2967 199.748 47.9372C200.068 47.5776 200.442 47.2967 200.869 47.0945C201.301 46.8922 201.779 46.7911 202.301 46.7911C202.756 46.7911 203.164 46.8529 203.523 46.9765C203.883 47.1001 204.189 47.2967 204.442 47.5664C204.695 47.836 204.886 48.1816 205.015 48.6029C205.15 49.0243 205.217 49.5383 205.217 50.1451V56.0779H204.206V50.1367C204.206 49.5074 204.119 49.0159 203.945 48.6619C203.77 48.3024 203.523 48.0467 203.203 47.895C202.883 47.7433 202.503 47.6675 202.065 47.6675C201.582 47.6675 201.158 47.7742 200.793 47.9877C200.433 48.1956 200.13 48.4681 199.883 48.8052C199.641 49.1366 199.456 49.4934 199.326 49.8754C199.197 50.2518 199.127 50.6114 199.116 50.9541Z" fill="white"/>
<path d="M211.276 46.9596V47.7855H206.709V46.9596H211.276ZM208.386 44.6169H209.389V53.8615C209.389 54.2829 209.445 54.6003 209.557 54.8138C209.669 55.0273 209.815 55.1705 209.995 55.2436C210.175 55.3166 210.369 55.3531 210.577 55.3531C210.728 55.3531 210.874 55.3447 211.015 55.3278C211.155 55.3054 211.282 55.2829 211.394 55.2604L211.436 56.1116C211.313 56.1509 211.153 56.1818 210.956 56.2043C210.759 56.2324 210.563 56.2464 210.366 56.2464C209.978 56.2464 209.636 56.1762 209.338 56.0357C209.04 55.8896 208.807 55.6425 208.638 55.2941C208.47 54.9402 208.386 54.4598 208.386 53.8531V44.6169Z" fill="white"/>
<path d="M80.9831 62.505H82.0281L86.5619 73.3087L91.1042 62.505H92.1408L86.958 74.775H86.1659L80.9831 62.505ZM80.6629 62.505H81.5815L81.691 69.4153V74.775H80.6629V62.505ZM91.5593 62.505H92.4778V74.775H91.4413V69.4153L91.5593 62.505Z" fill="white"/>
<path d="M98.8825 74.9436C98.287 74.9436 97.7392 74.834 97.2392 74.6149C96.7448 74.3958 96.3122 74.0868 95.9414 73.6879C95.5762 73.289 95.2925 72.8171 95.0903 72.2721C94.8936 71.7216 94.7953 71.1204 94.7953 70.4687V70.1063C94.7953 69.4041 94.8993 68.7692 95.1071 68.2018C95.315 67.6344 95.6015 67.1484 95.9667 66.7439C96.3319 66.3394 96.7476 66.0304 97.2139 65.8169C97.6859 65.5978 98.1803 65.4882 98.6971 65.4882C99.2758 65.4882 99.7898 65.5922 100.239 65.8C100.689 66.0023 101.065 66.2916 101.369 66.668C101.678 67.0388 101.911 67.4799 102.068 67.9911C102.225 68.4968 102.304 69.0558 102.304 69.6681V70.2833H95.4021V69.4237H101.301V69.3058C101.29 68.7945 101.186 68.317 100.989 67.8731C100.798 67.4237 100.512 67.0585 100.13 66.7776C99.7477 66.4967 99.2702 66.3562 98.6971 66.3562C98.2701 66.3562 97.8769 66.4461 97.5173 66.6259C97.1634 66.8057 96.8572 67.0641 96.5987 67.4012C96.3459 67.7327 96.1493 68.1288 96.0088 68.5895C95.874 69.0445 95.8066 69.5502 95.8066 70.1063V70.4687C95.8066 70.9744 95.8796 71.4463 96.0257 71.8845C96.1774 72.3171 96.3909 72.6991 96.6662 73.0306C96.9471 73.3621 97.2785 73.6205 97.6606 73.8059C98.0426 73.9913 98.464 74.084 98.9247 74.084C99.464 74.084 99.9415 73.9857 100.357 73.789C100.773 73.5868 101.147 73.2694 101.478 72.8368L102.11 73.3255C101.914 73.6177 101.666 73.8874 101.369 74.1346C101.076 74.3818 100.725 74.5784 100.315 74.7245C99.905 74.8705 99.4275 74.9436 98.8825 74.9436Z" fill="white"/>
<path d="M107.815 74.9436C107.22 74.9436 106.672 74.834 106.172 74.6149C105.678 74.3958 105.245 74.0868 104.874 73.6879C104.509 73.289 104.225 72.8171 104.023 72.2721C103.826 71.7216 103.728 71.1204 103.728 70.4687V70.1063C103.728 69.4041 103.832 68.7692 104.04 68.2018C104.248 67.6344 104.534 67.1484 104.9 66.7439C105.265 66.3394 105.68 66.0304 106.147 65.8169C106.619 65.5978 107.113 65.4882 107.63 65.4882C108.209 65.4882 108.723 65.5922 109.172 65.8C109.622 66.0023 109.998 66.2916 110.301 66.668C110.61 67.0388 110.844 67.4799 111.001 67.9911C111.158 68.4968 111.237 69.0558 111.237 69.6681V70.2833H104.335V69.4237H110.234V69.3058C110.223 68.7945 110.119 68.317 109.922 67.8731C109.731 67.4237 109.445 67.0585 109.063 66.7776C108.681 66.4967 108.203 66.3562 107.63 66.3562C107.203 66.3562 106.81 66.4461 106.45 66.6259C106.096 66.8057 105.79 67.0641 105.532 67.4012C105.279 67.7327 105.082 68.1288 104.942 68.5895C104.807 69.0445 104.739 69.5502 104.739 70.1063V70.4687C104.739 70.9744 104.812 71.4463 104.959 71.8845C105.11 72.3171 105.324 72.6991 105.599 73.0306C105.88 73.3621 106.211 73.6205 106.593 73.8059C106.975 73.9913 107.397 74.084 107.857 74.084C108.397 74.084 108.874 73.9857 109.29 73.789C109.706 73.5868 110.079 73.2694 110.411 72.8368L111.043 73.3255C110.846 73.6177 110.599 73.8874 110.301 74.1346C110.009 74.3818 109.658 74.5784 109.248 74.7245C108.838 74.8705 108.36 74.9436 107.815 74.9436Z" fill="white"/>
<path d="M116.672 65.6568V66.4826H112.105V65.6568H116.672ZM113.782 63.314H114.785V72.5587C114.785 72.98 114.841 73.2975 114.953 73.5109C115.066 73.7244 115.212 73.8677 115.391 73.9407C115.571 74.0138 115.765 74.0503 115.973 74.0503C116.125 74.0503 116.271 74.0419 116.411 74.025C116.552 74.0025 116.678 73.9801 116.79 73.9576L116.832 74.8087C116.709 74.8481 116.549 74.879 116.352 74.9014C116.155 74.9295 115.959 74.9436 115.762 74.9436C115.375 74.9436 115.032 74.8733 114.734 74.7329C114.436 74.5868 114.203 74.3396 114.035 73.9913C113.866 73.6373 113.782 73.157 113.782 72.5502V63.314Z" fill="white"/>
<path d="M124.248 72.4491C124.248 72.2019 124.187 71.9575 124.063 71.7159C123.939 71.4744 123.701 71.2524 123.347 71.0502C122.998 70.8479 122.484 70.6766 121.805 70.5361C121.299 70.4238 120.847 70.2974 120.448 70.1569C120.054 70.0165 119.723 69.8479 119.453 69.6513C119.184 69.4546 118.979 69.2187 118.838 68.9434C118.698 68.6681 118.627 68.3423 118.627 67.9658C118.627 67.6287 118.701 67.3113 118.847 67.0136C118.998 66.7102 119.212 66.4461 119.487 66.2214C119.768 65.9911 120.105 65.8113 120.498 65.6821C120.897 65.5528 121.344 65.4882 121.838 65.4882C122.541 65.4882 123.142 65.609 123.642 65.8506C124.147 66.0866 124.532 66.4096 124.796 66.8197C125.066 67.2299 125.201 67.6934 125.201 68.2102H124.198C124.198 67.8956 124.105 67.5979 123.92 67.3169C123.74 67.036 123.473 66.8057 123.119 66.6259C122.771 66.4461 122.344 66.3562 121.838 66.3562C121.316 66.3562 120.892 66.4349 120.566 66.5922C120.24 66.7495 120.001 66.949 119.849 67.1905C119.703 67.4321 119.63 67.6821 119.63 67.9406C119.63 68.1428 119.661 68.3282 119.723 68.4968C119.79 68.6597 119.908 68.8114 120.077 68.9518C120.251 69.0923 120.498 69.2243 120.819 69.3479C121.139 69.4715 121.555 69.5923 122.066 69.7103C122.802 69.8732 123.403 70.0726 123.869 70.3086C124.341 70.5389 124.689 70.8255 124.914 71.1682C125.139 71.5053 125.251 71.9154 125.251 72.3985C125.251 72.775 125.173 73.1205 125.015 73.4351C124.858 73.7441 124.63 74.011 124.333 74.2357C124.041 74.4604 123.687 74.6346 123.271 74.7582C122.861 74.8818 122.4 74.9436 121.889 74.9436C121.119 74.9436 120.467 74.8172 119.934 74.5643C119.406 74.3059 119.004 73.9688 118.729 73.5531C118.459 73.1317 118.324 72.6851 118.324 72.2132H119.327C119.361 72.6851 119.51 73.0587 119.774 73.334C120.038 73.6036 120.361 73.7947 120.743 73.907C121.13 74.0194 121.512 74.0756 121.889 74.0756C122.406 74.0756 122.838 73.9997 123.187 73.848C123.535 73.6963 123.799 73.4969 123.979 73.2497C124.159 73.0025 124.248 72.7356 124.248 72.4491Z" fill="white"/>
<path d="M138.929 71.7581C138.929 71.421 138.872 71.1204 138.76 70.8564C138.648 70.5923 138.462 70.3564 138.204 70.1485C137.951 69.935 137.608 69.7384 137.176 69.5586C136.749 69.3732 136.215 69.1906 135.575 69.0108C134.962 68.8366 134.409 68.6456 133.914 68.4378C133.42 68.2299 132.996 67.9911 132.642 67.7214C132.294 67.4518 132.027 67.1372 131.841 66.7776C131.656 66.4124 131.563 65.9883 131.563 65.5051C131.563 65.0332 131.664 64.6034 131.867 64.2157C132.069 63.8281 132.353 63.4938 132.718 63.2129C133.089 62.932 133.524 62.7157 134.024 62.564C134.53 62.4123 135.083 62.3365 135.684 62.3365C136.544 62.3365 137.285 62.4994 137.909 62.8252C138.538 63.1511 139.024 63.5921 139.367 64.1483C139.715 64.6989 139.889 65.3169 139.889 66.0023H138.853C138.853 65.4686 138.726 64.9938 138.474 64.5781C138.226 64.1567 137.867 63.8281 137.395 63.5921C136.929 63.3505 136.358 63.2297 135.684 63.2297C135.01 63.2297 134.443 63.3337 133.982 63.5416C133.527 63.7438 133.181 64.0163 132.945 64.359C132.715 64.6961 132.6 65.0725 132.6 65.4882C132.6 65.7804 132.656 66.0501 132.768 66.2973C132.881 66.5388 133.063 66.7664 133.316 66.9799C133.575 67.1877 133.914 67.3844 134.336 67.5698C134.757 67.7495 135.277 67.9209 135.895 68.0838C136.547 68.2636 137.125 68.463 137.631 68.6821C138.136 68.9013 138.563 69.1541 138.912 69.4406C139.26 69.7215 139.524 70.0502 139.704 70.4266C139.884 70.803 139.974 71.2412 139.974 71.7412C139.974 72.2412 139.867 72.6907 139.653 73.0896C139.445 73.4828 139.151 73.8171 138.768 74.0924C138.392 74.3677 137.945 74.5784 137.429 74.7245C136.917 74.8705 136.358 74.9436 135.752 74.9436C135.207 74.9436 134.664 74.8733 134.125 74.7329C133.586 74.5924 133.091 74.3761 132.642 74.084C132.198 73.7862 131.841 73.4042 131.572 72.9379C131.308 72.4716 131.176 71.9154 131.176 71.2693H132.204C132.204 71.7862 132.308 72.2216 132.516 72.5755C132.723 72.9295 132.999 73.216 133.341 73.4351C133.69 73.6542 134.072 73.8143 134.487 73.9154C134.909 74.011 135.33 74.0587 135.752 74.0587C136.398 74.0587 136.957 73.9632 137.429 73.7722C137.906 73.5812 138.274 73.3143 138.533 72.9716C138.797 72.6233 138.929 72.2188 138.929 71.7581Z" fill="white"/>
<path d="M145.502 74.9436C144.906 74.9436 144.359 74.834 143.859 74.6149C143.364 74.3958 142.932 74.0868 142.561 73.6879C142.196 73.289 141.912 72.8171 141.71 72.2721C141.513 71.7216 141.415 71.1204 141.415 70.4687V70.1063C141.415 69.4041 141.519 68.7692 141.726 68.2018C141.934 67.6344 142.221 67.1484 142.586 66.7439C142.951 66.3394 143.367 66.0304 143.833 65.8169C144.305 65.5978 144.8 65.4882 145.316 65.4882C145.895 65.4882 146.409 65.5922 146.859 65.8C147.308 66.0023 147.684 66.2916 147.988 66.668C148.297 67.0388 148.53 67.4799 148.687 67.9911C148.845 68.4968 148.923 69.0558 148.923 69.6681V70.2833H142.021V69.4237H147.92V69.3058C147.909 68.7945 147.805 68.317 147.609 67.8731C147.418 67.4237 147.131 67.0585 146.749 66.7776C146.367 66.4967 145.889 66.3562 145.316 66.3562C144.889 66.3562 144.496 66.4461 144.137 66.6259C143.783 66.8057 143.476 67.0641 143.218 67.4012C142.965 67.7327 142.769 68.1288 142.628 68.5895C142.493 69.0445 142.426 69.5502 142.426 70.1063V70.4687C142.426 70.9744 142.499 71.4463 142.645 71.8845C142.797 72.3171 143.01 72.6991 143.285 73.0306C143.566 73.3621 143.898 73.6205 144.28 73.8059C144.662 73.9913 145.083 74.084 145.544 74.084C146.083 74.084 146.561 73.9857 146.977 73.789C147.392 73.5868 147.766 73.2694 148.097 72.8368L148.729 73.3255C148.533 73.6177 148.286 73.8874 147.988 74.1346C147.696 74.3818 147.345 74.5784 146.934 74.7245C146.524 74.8705 146.047 74.9436 145.502 74.9436Z" fill="white"/>
<path d="M154.275 74.0756C154.702 74.0756 155.1 73.9969 155.471 73.8396C155.848 73.6767 156.157 73.4379 156.398 73.1233C156.645 72.8031 156.786 72.4126 156.82 71.9519H157.78C157.752 72.5306 157.575 73.0474 157.249 73.5025C156.929 73.952 156.508 74.3059 155.985 74.5643C155.468 74.8172 154.898 74.9436 154.275 74.9436C153.64 74.9436 153.078 74.8284 152.589 74.5981C152.106 74.3677 151.701 74.0475 151.376 73.6373C151.05 73.2216 150.803 72.7384 150.634 72.1879C150.471 71.6317 150.39 71.0333 150.39 70.3929V70.0389C150.39 69.3985 150.471 68.8029 150.634 68.2524C150.803 67.6962 151.05 67.213 151.376 66.8029C151.701 66.3871 152.106 66.0641 152.589 65.8338C153.072 65.6034 153.631 65.4882 154.266 65.4882C154.918 65.4882 155.502 65.6203 156.019 65.8843C156.541 66.1484 156.957 66.522 157.266 67.0051C157.581 67.4883 157.752 68.0613 157.78 68.7243H156.82C156.791 68.2355 156.662 67.8141 156.432 67.4602C156.202 67.1063 155.898 66.8338 155.522 66.6428C155.145 66.4517 154.727 66.3562 154.266 66.3562C153.749 66.3562 153.308 66.4574 152.943 66.6596C152.578 66.8563 152.28 67.1287 152.05 67.4771C151.825 67.8198 151.659 68.213 151.553 68.6569C151.446 69.0951 151.392 69.5558 151.392 70.0389V70.3929C151.392 70.8817 151.443 71.348 151.544 71.7918C151.651 72.23 151.817 72.6205 152.041 72.9632C152.272 73.3059 152.569 73.5784 152.935 73.7806C153.305 73.9772 153.752 74.0756 154.275 74.0756Z" fill="white"/>
<path d="M165.651 72.6682V65.6568H166.663V74.775H165.693L165.651 72.6682ZM165.837 70.9828L166.359 70.9659C166.359 71.539 166.292 72.0671 166.157 72.5502C166.022 73.0334 165.811 73.4548 165.525 73.8143C165.238 74.1739 164.868 74.452 164.412 74.6486C163.957 74.8452 163.41 74.9436 162.769 74.9436C162.325 74.9436 161.918 74.8818 161.547 74.7582C161.182 74.629 160.867 74.4267 160.603 74.1514C160.339 73.8761 160.134 73.5194 159.988 73.0812C159.848 72.6429 159.778 72.112 159.778 71.4884V65.6568H160.78V71.5053C160.78 71.994 160.834 72.4014 160.94 72.7272C161.053 73.0531 161.205 73.3143 161.396 73.5109C161.592 73.7076 161.817 73.848 162.07 73.9323C162.323 74.0166 162.595 74.0587 162.887 74.0587C163.629 74.0587 164.213 73.9154 164.64 73.6289C165.073 73.3424 165.379 72.966 165.559 72.4997C165.744 72.0278 165.837 71.5221 165.837 70.9828Z" fill="white"/>
<path d="M170.303 67.1653V74.775H169.3V65.6568H170.278L170.303 67.1653ZM173.531 65.5894L173.505 66.5164C173.393 66.4995 173.284 66.4855 173.177 66.4742C173.07 66.463 172.955 66.4574 172.831 66.4574C172.393 66.4574 172.008 66.5388 171.677 66.7018C171.351 66.8591 171.076 67.081 170.851 67.3675C170.626 67.6484 170.455 67.9799 170.337 68.3619C170.219 68.7383 170.151 69.1428 170.135 69.5754L169.764 69.7187C169.764 69.1232 169.826 68.5698 169.949 68.0585C170.073 67.5473 170.261 67.1006 170.514 66.7186C170.772 66.331 171.095 66.0304 171.483 65.8169C171.876 65.5978 172.337 65.4882 172.865 65.4882C172.994 65.4882 173.121 65.4995 173.244 65.5219C173.373 65.5388 173.469 65.5613 173.531 65.5894Z" fill="white"/>
<path d="M176.236 65.6568V74.775H175.233V65.6568H176.236ZM175.056 63.0191C175.056 62.8281 175.115 62.6679 175.233 62.5387C175.357 62.4039 175.525 62.3365 175.739 62.3365C175.952 62.3365 176.121 62.4039 176.244 62.5387C176.374 62.6679 176.438 62.8281 176.438 63.0191C176.438 63.2045 176.374 63.3646 176.244 63.4994C176.121 63.6286 175.952 63.6932 175.739 63.6932C175.525 63.6932 175.357 63.6286 175.233 63.4994C175.115 63.3646 175.056 63.2045 175.056 63.0191Z" fill="white"/>
<path d="M182.438 65.6568V66.4826H177.871V65.6568H182.438ZM179.548 63.314H180.551V72.5587C180.551 72.98 180.607 73.2975 180.719 73.5109C180.831 73.7244 180.978 73.8677 181.157 73.9407C181.337 74.0138 181.531 74.0503 181.739 74.0503C181.891 74.0503 182.037 74.0419 182.177 74.025C182.317 74.0025 182.444 73.9801 182.556 73.9576L182.598 74.8087C182.475 74.8481 182.315 74.879 182.118 74.9014C181.921 74.9295 181.725 74.9436 181.528 74.9436C181.14 74.9436 180.798 74.8733 180.5 74.7329C180.202 74.5868 179.969 74.3396 179.801 73.9913C179.632 73.6373 179.548 73.157 179.548 72.5502V63.314Z" fill="white"/>
<path d="M187.259 73.8649L190.099 65.6568H191.186L187.326 76.2414C187.247 76.4492 187.146 76.6796 187.023 76.9324C186.905 77.1852 186.747 77.4268 186.551 77.6571C186.36 77.8931 186.118 78.0841 185.826 78.2302C185.539 78.3819 185.188 78.4577 184.773 78.4577C184.666 78.4577 184.528 78.4437 184.36 78.4156C184.197 78.3931 184.079 78.3706 184.006 78.3482L183.997 77.497C184.059 77.5139 184.149 77.5279 184.267 77.5391C184.385 77.5504 184.466 77.556 184.511 77.556C184.877 77.556 185.183 77.4942 185.43 77.3706C185.683 77.247 185.893 77.0616 186.062 76.8144C186.231 76.5728 186.379 76.2694 186.509 75.9043L187.259 73.8649ZM184.604 65.6568L187.511 73.4857L187.781 74.5391L187.048 74.952L183.509 65.6568H184.604Z" fill="white"/>
<path d="M91.5621 28.0913C91.5621 27.773 91.5152 27.4874 91.4216 27.2346C91.328 26.9724 91.1547 26.7289 90.9019 26.5042C90.6491 26.2795 90.2839 26.0547 89.8064 25.83C89.3382 25.5959 88.7202 25.3525 87.9524 25.0997C87.0535 24.8 86.1874 24.4629 85.354 24.0884C84.5207 23.7045 83.7763 23.2597 83.1208 22.7541C82.4654 22.2391 81.9457 21.6398 81.5618 20.9563C81.1779 20.2634 80.9859 19.4581 80.9859 18.5405C80.9859 17.6603 81.1825 16.8691 81.5758 16.1668C81.9691 15.4552 82.5169 14.8512 83.2191 14.355C83.9308 13.8493 84.7641 13.4654 85.7192 13.2033C86.6743 12.9317 87.7183 12.7959 88.8513 12.7959C90.3495 12.7959 91.6697 13.0581 92.8121 13.5825C93.9638 14.0975 94.8627 14.8325 95.5088 15.7876C96.1643 16.7333 96.492 17.8523 96.492 19.1444H91.5902C91.5902 18.6294 91.4825 18.1753 91.2671 17.782C91.0611 17.3888 90.7474 17.0798 90.3261 16.855C89.9047 16.6303 89.3757 16.518 88.7389 16.518C88.121 16.518 87.6013 16.6116 87.1799 16.7989C86.7586 16.9861 86.4402 17.2389 86.2248 17.5573C86.0095 17.8663 85.9018 18.2081 85.9018 18.5826C85.9018 18.8916 85.9861 19.1725 86.1546 19.4253C86.3325 19.6688 86.5806 19.8982 86.899 20.1136C87.2267 20.3289 87.62 20.5349 88.0788 20.7316C88.547 20.9282 89.0714 21.1201 89.6519 21.3074C90.7381 21.6539 91.7025 22.0425 92.5452 22.4732C93.3973 22.8945 94.1136 23.3768 94.6942 23.9199C95.2841 24.4536 95.7288 25.0622 96.0285 25.7457C96.3375 26.4293 96.492 27.2018 96.492 28.0632C96.492 28.9809 96.3141 29.7955 95.9583 30.5071C95.6024 31.2188 95.0921 31.8227 94.4273 32.319C93.7625 32.8059 92.9666 33.1757 92.0396 33.4286C91.1126 33.6814 90.0779 33.8078 88.9356 33.8078C87.8869 33.8078 86.8522 33.6767 85.8316 33.4145C84.8203 33.143 83.9027 32.731 83.0787 32.1785C82.2547 31.6167 81.5945 30.9004 81.0983 30.0296C80.6114 29.1494 80.3679 28.1054 80.3679 26.8975H85.3119C85.3119 27.4967 85.3915 28.0024 85.5507 28.4144C85.7098 28.8264 85.9439 29.1588 86.2529 29.4116C86.5619 29.655 86.9411 29.8329 87.3906 29.9453C87.84 30.0483 88.355 30.0998 88.9356 30.0998C89.5629 30.0998 90.0686 30.0109 90.4525 29.8329C90.8364 29.6457 91.1173 29.4022 91.2952 29.1026C91.4731 28.7936 91.5621 28.4565 91.5621 28.0913Z" fill="white"/>
<path d="M106.703 29.7065V23.4423C106.703 23.0116 106.642 22.6417 106.52 22.3327C106.399 22.0237 106.207 21.785 105.944 21.6164C105.682 21.4385 105.331 21.3496 104.891 21.3496C104.535 21.3496 104.231 21.4104 103.978 21.5321C103.725 21.6539 103.533 21.8365 103.402 22.0799C103.271 22.3234 103.206 22.6324 103.206 23.0069H98.4724C98.4724 22.3046 98.6269 21.6539 98.9359 21.0546C99.2542 20.446 99.7037 19.9169 100.284 19.4675C100.874 19.018 101.576 18.6716 102.391 18.4281C103.215 18.1753 104.133 18.0489 105.144 18.0489C106.352 18.0489 107.429 18.2502 108.374 18.6528C109.329 19.0555 110.083 19.6594 110.636 20.4647C111.188 21.2606 111.464 22.2625 111.464 23.4704V29.6925C111.464 30.685 111.52 31.4388 111.633 31.9538C111.745 32.4594 111.904 32.9042 112.11 33.2881V33.5269H107.363C107.138 33.0587 106.97 32.4875 106.857 31.8133C106.754 31.1298 106.703 30.4275 106.703 29.7065ZM107.279 24.2429L107.307 26.7711H105.214C104.774 26.7711 104.4 26.8319 104.091 26.9536C103.791 27.0754 103.547 27.2439 103.36 27.4593C103.182 27.6653 103.051 27.8994 102.967 28.1615C102.892 28.4237 102.855 28.7 102.855 28.9902C102.855 29.2711 102.92 29.5239 103.051 29.7487C103.192 29.964 103.379 30.1326 103.613 30.2543C103.847 30.376 104.109 30.4369 104.4 30.4369C104.924 30.4369 105.369 30.3386 105.734 30.1419C106.108 29.9359 106.394 29.6878 106.591 29.3975C106.787 29.1073 106.886 28.8357 106.886 28.5829L107.925 30.5212C107.738 30.8957 107.522 31.2749 107.279 31.6588C107.045 32.0427 106.75 32.3986 106.394 32.7263C106.047 33.0446 105.621 33.3068 105.116 33.5128C104.61 33.7095 103.997 33.8078 103.276 33.8078C102.34 33.8078 101.478 33.6158 100.692 33.2319C99.9144 32.848 99.2917 32.3143 98.8235 31.6307C98.3553 30.9378 98.1212 30.1419 98.1212 29.243C98.1212 28.4565 98.2617 27.7542 98.5426 27.1362C98.8329 26.5182 99.2683 25.9939 99.8488 25.5632C100.429 25.1324 101.169 24.8047 102.068 24.58C102.967 24.3553 104.025 24.2429 105.242 24.2429H107.279Z" fill="white"/>
<path d="M119.892 33.5269H115.13V17.0938C115.13 15.914 115.369 14.9215 115.846 14.1162C116.324 13.3109 116.998 12.7023 117.869 12.2903C118.74 11.8689 119.77 11.6583 120.959 11.6583C121.371 11.6583 121.76 11.6864 122.125 11.7425C122.49 11.7987 122.846 11.8689 123.192 11.9532L123.206 15.4365C123.038 15.3896 122.864 15.3569 122.687 15.3381C122.509 15.3194 122.289 15.3101 122.026 15.3101C121.568 15.3101 121.179 15.3803 120.861 15.5207C120.542 15.6518 120.299 15.8531 120.13 16.1247C119.971 16.3869 119.892 16.7099 119.892 17.0938V33.5269ZM122.841 18.3298V21.6164H112.939V18.3298H122.841Z" fill="white"/>
<path d="M131.563 33.8078C130.327 33.8078 129.222 33.6158 128.249 33.2319C127.275 32.8386 126.451 32.3002 125.777 31.6167C125.112 30.9332 124.601 30.1466 124.246 29.2571C123.899 28.3675 123.726 27.4265 123.726 26.434V25.9002C123.726 24.786 123.88 23.756 124.189 22.8103C124.498 21.8552 124.957 21.0218 125.566 20.3102C126.174 19.5986 126.938 19.0461 127.855 18.6528C128.773 18.2502 129.84 18.0489 131.058 18.0489C132.134 18.0489 133.099 18.2221 133.951 18.5686C134.803 18.915 135.524 19.4113 136.114 20.0574C136.713 20.7035 137.167 21.4853 137.476 22.403C137.795 23.3206 137.954 24.3506 137.954 25.4929V27.4171H125.538V24.4536H133.333V24.0884C133.342 23.5828 133.253 23.152 133.066 22.7962C132.888 22.4404 132.626 22.1689 132.28 21.9816C131.933 21.7943 131.512 21.7007 131.015 21.7007C130.5 21.7007 130.074 21.8131 129.737 22.0378C129.41 22.2625 129.152 22.5715 128.965 22.9648C128.787 23.3487 128.66 23.7934 128.586 24.2991C128.511 24.8047 128.473 25.3384 128.473 25.9002V26.434C128.473 26.9958 128.548 27.5061 128.698 27.9649C128.857 28.4237 129.082 28.817 129.372 29.1447C129.672 29.4631 130.028 29.7112 130.44 29.8891C130.861 30.067 131.338 30.156 131.872 30.156C132.518 30.156 133.155 30.0343 133.782 29.7908C134.41 29.5474 134.948 29.1447 135.398 28.5829L137.547 31.1392C137.238 31.5792 136.797 32.0053 136.226 32.4173C135.664 32.8293 134.99 33.1664 134.204 33.4286C133.417 33.6814 132.537 33.8078 131.563 33.8078Z" fill="white"/>
<path d="M146.606 31.6729C147.224 31.6729 147.795 31.5465 148.319 31.2937C148.844 31.0408 149.274 30.6944 149.611 30.2543C149.949 29.8049 150.141 29.2945 150.187 28.7234H152.659C152.612 29.6223 152.308 30.4603 151.746 31.2375C151.194 32.0053 150.468 32.628 149.569 33.1055C148.67 33.5737 147.683 33.8078 146.606 33.8078C145.463 33.8078 144.466 33.6065 143.614 33.2038C142.771 32.8012 142.069 32.2487 141.507 31.5465C140.955 30.8442 140.538 30.0389 140.257 29.1307C139.986 28.213 139.85 27.2439 139.85 26.2233V25.6334C139.85 24.6128 139.986 23.6483 140.257 22.74C140.538 21.8224 140.955 21.0125 141.507 20.3102C142.069 19.6079 142.771 19.0555 143.614 18.6528C144.466 18.2502 145.463 18.0489 146.606 18.0489C147.795 18.0489 148.834 18.2924 149.724 18.7793C150.613 19.2568 151.311 19.9122 151.817 20.7456C152.332 21.5696 152.612 22.506 152.659 23.5547H150.187C150.141 22.9273 149.963 22.3608 149.654 21.8552C149.354 21.3496 148.942 20.9469 148.418 20.6473C147.903 20.3383 147.299 20.1838 146.606 20.1838C145.81 20.1838 145.14 20.343 144.597 20.6613C144.064 20.9703 143.638 21.3917 143.319 21.9254C143.01 22.4498 142.785 23.035 142.645 23.6811C142.514 24.3178 142.448 24.9686 142.448 25.6334V26.2233C142.448 26.8881 142.514 27.5436 142.645 28.1896C142.776 28.8357 142.996 29.4209 143.305 29.9453C143.623 30.4697 144.05 30.891 144.583 31.2094C145.126 31.5184 145.801 31.6729 146.606 31.6729Z" fill="white"/>
<path d="M164.542 30.9285V23.1052C164.542 22.506 164.42 21.9863 164.176 21.5462C163.942 21.0967 163.587 20.7503 163.109 20.5068C162.632 20.2634 162.042 20.1417 161.339 20.1417C160.684 20.1417 160.108 20.254 159.612 20.4787C159.125 20.7035 158.741 20.9984 158.46 21.3636C158.188 21.7288 158.053 22.122 158.053 22.5434H155.454C155.454 22.0003 155.595 21.4619 155.876 20.9282C156.157 20.3945 156.559 19.9122 157.084 19.4815C157.617 19.0414 158.254 18.695 158.994 18.4422C159.743 18.18 160.576 18.0489 161.494 18.0489C162.599 18.0489 163.573 18.2362 164.415 18.6107C165.267 18.9853 165.932 19.5517 166.41 20.3102C166.897 21.0593 167.14 22.0003 167.14 23.1333V30.2122C167.14 30.7178 167.182 31.2562 167.266 31.8274C167.36 32.3986 167.496 32.8901 167.674 33.3021V33.5269H164.963C164.832 33.2272 164.729 32.8293 164.654 32.333C164.579 31.8274 164.542 31.3592 164.542 30.9285ZM164.991 24.3131L165.019 26.139H162.393C161.653 26.139 160.993 26.1999 160.412 26.3216C159.832 26.434 159.345 26.6072 158.952 26.8413C158.558 27.0754 158.259 27.3703 158.053 27.7261C157.847 28.0726 157.744 28.4799 157.744 28.9481C157.744 29.4256 157.851 29.861 158.067 30.2543C158.282 30.6476 158.605 30.9613 159.036 31.1953C159.476 31.4201 160.014 31.5324 160.651 31.5324C161.447 31.5324 162.149 31.3639 162.758 31.0268C163.367 30.6897 163.849 30.2777 164.205 29.7908C164.57 29.3039 164.766 28.831 164.794 28.3722L165.904 29.6223C165.839 30.0155 165.661 30.4509 165.37 30.9285C165.08 31.406 164.691 31.8648 164.205 32.3049C163.727 32.7356 163.156 33.0961 162.491 33.3864C161.836 33.6673 161.096 33.8078 160.272 33.8078C159.242 33.8078 158.338 33.6065 157.561 33.2038C156.793 32.8012 156.194 32.2628 155.763 31.5886C155.342 30.9051 155.131 30.1419 155.131 29.2992C155.131 28.4846 155.29 27.7683 155.609 27.1503C155.927 26.5229 156.386 26.0032 156.985 25.5912C157.585 25.1699 158.306 24.8515 159.148 24.6362C159.991 24.4208 160.932 24.3131 161.971 24.3131H164.991Z" fill="white"/>
<path d="M180.076 29.4959C180.076 29.1213 179.992 28.7749 179.823 28.4565C179.664 28.1288 179.331 27.8338 178.826 27.5716C178.33 27.3001 177.58 27.066 176.579 26.8694C175.736 26.6915 174.973 26.4808 174.289 26.2373C173.615 25.9939 173.039 25.6989 172.562 25.3525C172.093 25.006 171.733 24.5987 171.48 24.1305C171.227 23.6624 171.101 23.1146 171.101 22.4872C171.101 21.888 171.232 21.3215 171.494 20.7877C171.766 20.254 172.145 19.7812 172.632 19.3692C173.128 18.9572 173.723 18.6341 174.416 18.4C175.108 18.1659 175.881 18.0489 176.733 18.0489C177.95 18.0489 178.99 18.2643 179.851 18.695C180.713 19.1257 181.373 19.7016 181.831 20.4226C182.29 21.1342 182.52 21.9254 182.52 22.7962H179.921C179.921 22.3749 179.795 21.9675 179.542 21.5743C179.299 21.1716 178.938 20.8392 178.461 20.5771C177.992 20.3149 177.417 20.1838 176.733 20.1838C176.012 20.1838 175.427 20.2962 174.977 20.5209C174.537 20.7362 174.214 21.0125 174.008 21.3496C173.812 21.6866 173.713 22.0425 173.713 22.417C173.713 22.6979 173.76 22.9507 173.854 23.1754C173.957 23.3908 174.135 23.5921 174.387 23.7794C174.64 23.9573 174.996 24.1259 175.455 24.285C175.914 24.4442 176.499 24.6034 177.211 24.7626C178.456 25.0435 179.481 25.3806 180.287 25.7738C181.092 26.1671 181.691 26.6493 182.084 27.2205C182.478 27.7917 182.674 28.4846 182.674 29.2992C182.674 29.964 182.534 30.5727 182.253 31.1251C181.981 31.6776 181.583 32.1551 181.059 32.5577C180.544 32.951 179.926 33.26 179.205 33.4847C178.493 33.7001 177.693 33.8078 176.803 33.8078C175.464 33.8078 174.331 33.569 173.404 33.0915C172.477 32.6139 171.775 31.9959 171.297 31.2375C170.82 30.479 170.581 29.6784 170.581 28.8357H173.194C173.231 29.5474 173.437 30.1139 173.812 30.5352C174.186 30.9472 174.645 31.2422 175.188 31.4201C175.731 31.5886 176.27 31.6729 176.803 31.6729C177.515 31.6729 178.109 31.5792 178.587 31.392C179.074 31.2047 179.444 30.9472 179.697 30.6195C179.949 30.2918 180.076 29.9172 180.076 29.4959Z" fill="white"/>
<path d="M188.91 18.3298V33.5269H186.298V18.3298H188.91ZM186.101 14.2988C186.101 13.8774 186.228 13.5216 186.481 13.2313C186.743 12.9411 187.127 12.7959 187.632 12.7959C188.128 12.7959 188.508 12.9411 188.77 13.2313C189.041 13.5216 189.177 13.8774 189.177 14.2988C189.177 14.7014 189.041 15.0479 188.77 15.3381C188.508 15.6191 188.128 15.7595 187.632 15.7595C187.127 15.7595 186.743 15.6191 186.481 15.3381C186.228 15.0479 186.101 14.7014 186.101 14.2988Z" fill="white"/>
<path d="M195.68 21.5743V33.5269H193.082V18.3298H195.54L195.68 21.5743ZM195.062 25.3525L193.981 25.3103C193.99 24.271 194.145 23.3112 194.444 22.431C194.744 21.5415 195.165 20.769 195.708 20.1136C196.251 19.4581 196.897 18.9525 197.647 18.5967C198.405 18.2315 199.243 18.0489 200.161 18.0489C200.91 18.0489 201.584 18.1519 202.183 18.3579C202.782 18.5545 203.293 18.8729 203.714 19.313C204.145 19.7531 204.473 20.3242 204.697 21.0265C204.922 21.7194 205.034 22.5668 205.034 23.5687V33.5269H202.422V23.5406C202.422 22.7447 202.305 22.108 202.071 21.6305C201.837 21.1436 201.495 20.7924 201.046 20.5771C200.596 20.3523 200.044 20.24 199.388 20.24C198.742 20.24 198.152 20.3757 197.618 20.6473C197.094 20.9188 196.64 21.2934 196.256 21.7709C195.882 22.2485 195.587 22.7962 195.371 23.4142C195.165 24.0229 195.062 24.6689 195.062 25.3525Z" fill="white"/>
<path d="M208.293 26.0969V25.7738C208.293 24.6783 208.452 23.6624 208.77 22.726C209.089 21.7803 209.548 20.961 210.147 20.2681C210.746 19.5658 211.472 19.0227 212.324 18.6388C213.176 18.2455 214.131 18.0489 215.189 18.0489C216.257 18.0489 217.216 18.2455 218.068 18.6388C218.93 19.0227 219.66 19.5658 220.26 20.2681C220.868 20.961 221.332 21.7803 221.65 22.726C221.968 23.6624 222.128 24.6783 222.128 25.7738V26.0969C222.128 27.1924 221.968 28.2084 221.65 29.1447C221.332 30.0811 220.868 30.9004 220.26 31.6027C219.66 32.2956 218.935 32.8386 218.083 33.2319C217.24 33.6158 216.285 33.8078 215.217 33.8078C214.15 33.8078 213.19 33.6158 212.338 33.2319C211.486 32.8386 210.756 32.2956 210.147 31.6027C209.548 30.9004 209.089 30.0811 208.77 29.1447C208.452 28.2084 208.293 27.1924 208.293 26.0969ZM210.891 25.7738V26.0969C210.891 26.8553 210.98 27.5716 211.158 28.2458C211.336 28.9106 211.603 29.5005 211.959 30.0155C212.324 30.5305 212.778 30.9378 213.321 31.2375C213.864 31.5278 214.496 31.6729 215.217 31.6729C215.929 31.6729 216.552 31.5278 217.085 31.2375C217.628 30.9378 218.078 30.5305 218.434 30.0155C218.789 29.5005 219.056 28.9106 219.234 28.2458C219.422 27.5716 219.515 26.8553 219.515 26.0969V25.7738C219.515 25.0248 219.422 24.3178 219.234 23.653C219.056 22.9788 218.785 22.3842 218.42 21.8692C218.064 21.3449 217.614 20.9329 217.071 20.6332C216.538 20.3336 215.91 20.1838 215.189 20.1838C214.478 20.1838 213.85 20.3336 213.307 20.6332C212.773 20.9329 212.324 21.3449 211.959 21.8692C211.603 22.3842 211.336 22.9788 211.158 23.653C210.98 24.3178 210.891 25.0248 210.891 25.7738Z" fill="white"/>
<defs>
<radialGradient id="paint0_radial_62_8735" cx="0" cy="0" r="1" gradientUnits="userSpaceOnUse" gradientTransform="translate(28.4645 25.2193) rotate(-1.27884) scale(44.3017 44.6099)">
<stop stop-color="#8461D3"/>
<stop offset="0.99" stop-color="#7138B6"/>
</radialGradient>
<radialGradient id="paint1_radial_62_8735" cx="0" cy="0" r="1" gradientUnits="userSpaceOnUse" gradientTransform="translate(31.971 41.8109) rotate(-1.27884) scale(27.4145 27.6052)">
<stop stop-color="#6D47D3"/>
<stop offset="0.99" stop-color="#542492"/>
</radialGradient>
<linearGradient id="paint2_linear_62_8735" x1="18.4066" y1="73.0799" x2="17.1464" y2="16.6284" gradientUnits="userSpaceOnUse">
<stop stop-color="#3C1460"/>
<stop offset="0.99" stop-color="#3C1460"/>
</linearGradient>
<linearGradient id="paint3_linear_62_8735" x1="45064.6" y1="11544.6" x2="44924.5" y2="4585.25" gradientUnits="userSpaceOnUse">
<stop stop-color="#603082"/>
<stop offset="0.99" stop-color="#3C145F"/>
</linearGradient>
<linearGradient id="paint4_linear_62_8735" x1="18.8742" y1="72.4278" x2="17.6605" y2="18.0601" gradientUnits="userSpaceOnUse">
<stop offset="0.04" stop-color="#A4C6FF"/>
<stop offset="0.24" stop-color="#BD9BD2"/>
<stop offset="1" stop-color="#EBD7E3"/>
</linearGradient>
<linearGradient id="paint5_linear_62_8735" x1="43.6797" y1="71.874" x2="42.466" y2="17.5064" gradientUnits="userSpaceOnUse">
<stop stop-color="#83A8FF"/>
<stop offset="0.21" stop-color="#8E7BBB"/>
<stop offset="1" stop-color="#EBD7E3"/>
</linearGradient>
<linearGradient id="paint6_linear_62_8735" x1="22.0603" y1="45.7894" x2="40.1806" y2="45.3904" gradientUnits="userSpaceOnUse">
<stop stop-color="#2C2A88"/>
<stop offset="0.99" stop-color="#0C3C5A"/>
</linearGradient>
</defs>
</svg>
