<svg width="32" height="32" viewBox="0 0 32 32" fill="none" xmlns="http://www.w3.org/2000/svg">
<g clip-path="url(#clip0_4009_2585)">
<path fill-rule="evenodd" clip-rule="evenodd" d="M16 0C24.8365 0 32 7.16354 32 16C32 24.8365 24.8365 32 16 32C7.16354 32 0 24.8365 0 16C0 7.16354 7.16354 0 16 0ZM21.9981 16.6995L16.7888 11.4902C16.5795 11.2812 16.2958 11.1638 16 11.1638C15.7042 11.1638 15.4205 11.2812 15.2112 11.4902L10.0019 16.6995C9.89219 16.8017 9.80422 16.925 9.74321 17.0619C9.6822 17.1988 9.64939 17.3466 9.64675 17.4965C9.6441 17.6464 9.67167 17.7953 9.72782 17.9343C9.78396 18.0733 9.86752 18.1995 9.97352 18.3055C10.0795 18.4115 10.2058 18.4951 10.3448 18.5513C10.4838 18.6074 10.6327 18.635 10.7825 18.6323C10.9324 18.6297 11.0802 18.5969 11.2172 18.5359C11.3541 18.4748 11.4773 18.3869 11.5795 18.2772L16 13.8567L20.4205 18.2772C20.5227 18.3869 20.6459 18.4748 20.7828 18.5359C20.9198 18.5969 21.0676 18.6297 21.2175 18.6323C21.3673 18.635 21.5162 18.6074 21.6552 18.5513C21.7942 18.4951 21.9205 18.4115 22.0265 18.3055C22.1325 18.1995 22.216 18.0733 22.2722 17.9343C22.3283 17.7953 22.3559 17.6464 22.3533 17.4965C22.3506 17.3466 22.3178 17.1988 22.2568 17.0619C22.1958 16.925 22.1078 16.8017 21.9981 16.6995Z" fill="white"/>
</g>
<defs>
<clipPath id="clip0_4009_2585">
<rect width="32" height="32" fill="white"/>
</clipPath>
</defs>
</svg>
